<svg width="108" height="108" viewBox="0 0 108 108" fill="none" xmlns="http://www.w3.org/2000/svg">
<path d="M5.14286 0H0V5.14286H5.14286V0Z" fill="black"/>
<path d="M10.2857 0H5.14286V5.14286H10.2857V0Z" fill="black"/>
<path d="M15.4286 0H10.2857V5.14286H15.4286V0Z" fill="black"/>
<path d="M20.5714 0H15.4286V5.14286H20.5714V0Z" fill="black"/>
<path d="M25.7143 0H20.5714V5.14286H25.7143V0Z" fill="black"/>
<path d="M30.8571 0H25.7143V5.14286H30.8571V0Z" fill="black"/>
<path d="M36 0H30.8571V5.14286H36V0Z" fill="black"/>
<path d="M46.2857 0H41.1429V5.14286H46.2857V0Z" fill="black"/>
<path d="M61.7143 0H56.5714V5.14286H61.7143V0Z" fill="black"/>
<path d="M66.8571 0H61.7143V5.14286H66.8571V0Z" fill="black"/>
<path d="M77.1429 0H72V5.14286H77.1429V0Z" fill="black"/>
<path d="M82.2857 0H77.1429V5.14286H82.2857V0Z" fill="black"/>
<path d="M87.4286 0H82.2857V5.14286H87.4286V0Z" fill="black"/>
<path d="M92.5714 0H87.4286V5.14286H92.5714V0Z" fill="black"/>
<path d="M97.7143 0H92.5714V5.14286H97.7143V0Z" fill="black"/>
<path d="M102.857 0H97.7143V5.14286H102.857V0Z" fill="black"/>
<path d="M108 0H102.857V5.14286H108V0Z" fill="black"/>
<path d="M5.14286 5.14286H0V10.2857H5.14286V5.14286Z" fill="black"/>
<path d="M36 5.14286H30.8571V10.2857H36V5.14286Z" fill="black"/>
<path d="M56.5714 5.14286H51.4286V10.2857H56.5714L56.5714 5.14286Z" fill="black"/>
<path d="M61.7143 5.14286H56.5714L56.5714 10.2857H61.7143V5.14286Z" fill="black"/>
<path d="M77.1429 5.14286H72V10.2857H77.1429V5.14286Z" fill="black"/>
<path d="M108 5.14286H102.857V10.2857H108V5.14286Z" fill="black"/>
<path d="M5.14286 10.2857H0V15.4286H5.14286V10.2857Z" fill="black"/>
<path d="M15.4286 10.2857H10.2857V15.4286H15.4286V10.2857Z" fill="black"/>
<path d="M20.5714 10.2857H15.4286V15.4286H20.5714V10.2857Z" fill="black"/>
<path d="M25.7143 10.2857H20.5714V15.4286H25.7143V10.2857Z" fill="black"/>
<path d="M36 10.2857H30.8571V15.4286H36V10.2857Z" fill="black"/>
<path d="M46.2857 10.2857H41.1429V15.4286H46.2857V10.2857Z" fill="black"/>
<path d="M51.4286 10.2857H46.2857V15.4286H51.4286L51.4286 10.2857Z" fill="black"/>
<path d="M61.7143 10.2857H56.5714L56.5714 15.4286H61.7143V10.2857Z" fill="black"/>
<path d="M77.1429 10.2857H72V15.4286H77.1429V10.2857Z" fill="black"/>
<path d="M87.4286 10.2857H82.2857V15.4286H87.4286V10.2857Z" fill="black"/>
<path d="M92.5714 10.2857H87.4286V15.4286H92.5714V10.2857Z" fill="black"/>
<path d="M97.7143 10.2857H92.5714V15.4286H97.7143V10.2857Z" fill="black"/>
<path d="M108 10.2857H102.857V15.4286H108V10.2857Z" fill="black"/>
<path d="M5.14286 15.4286H0V20.5714H5.14286V15.4286Z" fill="black"/>
<path d="M15.4286 15.4286H10.2857V20.5714H15.4286V15.4286Z" fill="black"/>
<path d="M20.5714 15.4286H15.4286V20.5714H20.5714V15.4286Z" fill="black"/>
<path d="M25.7143 15.4286H20.5714V20.5714H25.7143V15.4286Z" fill="black"/>
<path d="M36 15.4286H30.8571V20.5714H36V15.4286Z" fill="black"/>
<path d="M46.2857 15.4286H41.1429V20.5714H46.2857V15.4286Z" fill="black"/>
<path d="M51.4286 15.4286H46.2857V20.5714H51.4286V15.4286Z" fill="black"/>
<path d="M56.5714 15.4286H51.4286V20.5714H56.5714L56.5714 15.4286Z" fill="black"/>
<path d="M77.1429 15.4286H72V20.5714H77.1429V15.4286Z" fill="black"/>
<path d="M87.4286 15.4286H82.2857V20.5714H87.4286V15.4286Z" fill="black"/>
<path d="M92.5714 15.4286H87.4286V20.5714H92.5714V15.4286Z" fill="black"/>
<path d="M97.7143 15.4286H92.5714V20.5714H97.7143V15.4286Z" fill="black"/>
<path d="M108 15.4286H102.857V20.5714H108V15.4286Z" fill="black"/>
<path d="M5.14286 20.5714H0V25.7143H5.14286V20.5714Z" fill="black"/>
<path d="M15.4286 20.5714H10.2857V25.7143H15.4286V20.5714Z" fill="black"/>
<path d="M20.5714 20.5714H15.4286V25.7143H20.5714V20.5714Z" fill="black"/>
<path d="M25.7143 20.5714H20.5714V25.7143H25.7143V20.5714Z" fill="black"/>
<path d="M36 20.5714H30.8571V25.7143H36V20.5714Z" fill="black"/>
<path d="M46.2857 20.5714H41.1429V25.7143H46.2857V20.5714Z" fill="black"/>
<path d="M51.4286 20.5714H46.2857V25.7143H51.4286V20.5714Z" fill="black"/>
<path d="M61.7143 20.5714H56.5714L56.5714 25.7143H61.7143V20.5714Z" fill="black"/>
<path d="M77.1429 20.5714H72V25.7143H77.1429V20.5714Z" fill="black"/>
<path d="M87.4286 20.5714H82.2857V25.7143H87.4286V20.5714Z" fill="black"/>
<path d="M92.5714 20.5714H87.4286V25.7143H92.5714V20.5714Z" fill="black"/>
<path d="M97.7143 20.5714H92.5714V25.7143H97.7143V20.5714Z" fill="black"/>
<path d="M108 20.5714H102.857V25.7143H108V20.5714Z" fill="black"/>
<path d="M5.14286 25.7143H0V30.8571H5.14286V25.7143Z" fill="black"/>
<path d="M36 25.7143H30.8571V30.8571H36V25.7143Z" fill="black"/>
<path d="M46.2857 25.7143H41.1429V30.8571H46.2857V25.7143Z" fill="black"/>
<path d="M51.4286 25.7143H46.2857V30.8571H51.4286V25.7143Z" fill="black"/>
<path d="M56.5714 25.7143H51.4286V30.8571H56.5714L56.5714 25.7143Z" fill="black"/>
<path d="M61.7143 25.7143H56.5714L56.5714 30.8571H61.7143V25.7143Z" fill="black"/>
<path d="M77.1429 25.7143H72V30.8571H77.1429V25.7143Z" fill="black"/>
<path d="M108 25.7143H102.857V30.8571H108V25.7143Z" fill="black"/>
<path d="M5.14286 30.8571H0V36H5.14286V30.8571Z" fill="black"/>
<path d="M10.2857 30.8571H5.14286V36H10.2857V30.8571Z" fill="black"/>
<path d="M15.4286 30.8571H10.2857V36H15.4286V30.8571Z" fill="black"/>
<path d="M20.5714 30.8571H15.4286V36H20.5714V30.8571Z" fill="black"/>
<path d="M25.7143 30.8571H20.5714V36H25.7143V30.8571Z" fill="black"/>
<path d="M30.8571 30.8571H25.7143V36H30.8571V30.8571Z" fill="black"/>
<path d="M36 30.8571H30.8571V36H36V30.8571Z" fill="black"/>
<path d="M46.2857 30.8571H41.1429V36H46.2857V30.8571Z" fill="black"/>
<path d="M56.5714 30.8571H51.4286L51.4286 36H56.5714V30.8571Z" fill="black"/>
<path d="M66.8571 30.8571H61.7143V36H66.8571V30.8571Z" fill="black"/>
<path d="M77.1429 30.8571H72V36H77.1429V30.8571Z" fill="black"/>
<path d="M82.2857 30.8571H77.1429V36H82.2857V30.8571Z" fill="black"/>
<path d="M87.4286 30.8571H82.2857V36H87.4286V30.8571Z" fill="black"/>
<path d="M92.5714 30.8571H87.4286V36H92.5714V30.8571Z" fill="black"/>
<path d="M97.7143 30.8571H92.5714V36H97.7143V30.8571Z" fill="black"/>
<path d="M102.857 30.8571H97.7143V36H102.857V30.8571Z" fill="black"/>
<path d="M108 30.8571H102.857V36H108V30.8571Z" fill="black"/>
<path d="M56.5714 36H51.4286V41.1429H56.5714V36Z" fill="black"/>
<path d="M15.4286 41.1429H10.2857V46.2857H15.4286V41.1429Z" fill="black"/>
<path d="M20.5714 41.1429H15.4286V46.2857H20.5714V41.1429Z" fill="black"/>
<path d="M25.7143 41.1429H20.5714V46.2857H25.7143V41.1429Z" fill="black"/>
<path d="M30.8571 41.1429H25.7143V46.2857H30.8571V41.1429Z" fill="black"/>
<path d="M36 41.1429H30.8571V46.2857H36V41.1429Z" fill="black"/>
<path d="M41.1429 41.1429H36V46.2857H41.1429V41.1429Z" fill="black"/>
<path d="M51.4286 41.1429L46.2857 41.1429V46.2857H51.4286L51.4286 41.1429Z" fill="black"/>
<path d="M61.7143 41.1429L56.5714 41.1429L56.5714 46.2857H61.7143V41.1429Z" fill="black"/>
<path d="M72 41.1429H66.8571V46.2857H72V41.1429Z" fill="black"/>
<path d="M82.2857 41.1429H77.1429V46.2857H82.2857V41.1429Z" fill="black"/>
<path d="M87.4286 41.1429H82.2857V46.2857H87.4286V41.1429Z" fill="black"/>
<path d="M92.5714 41.1429H87.4286V46.2857H92.5714V41.1429Z" fill="black"/>
<path d="M97.7143 41.1429H92.5714V46.2857H97.7143V41.1429Z" fill="black"/>
<path d="M108 41.1429H102.857V46.2857H108V41.1429Z" fill="black"/>
<path d="M5.14286 46.2857H0V51.4286H5.14286V46.2857Z" fill="black"/>
<path d="M10.2857 46.2857L5.14286 46.2857V51.4286H10.2857V46.2857Z" fill="black"/>
<path d="M25.7143 46.2857H20.5714V51.4286H25.7143V46.2857Z" fill="black"/>
<path d="M41.1429 46.2857H36V51.4286H41.1429V46.2857Z" fill="black"/>
<path d="M46.2857 46.2857H41.1429V51.4286H46.2857L46.2857 46.2857Z" fill="black"/>
<path d="M82.2857 46.2857H77.1429V51.4286H82.2857V46.2857Z" fill="black"/>
<path d="M87.4286 46.2857H82.2857V51.4286H87.4286V46.2857Z" fill="black"/>
<path d="M92.5714 46.2857H87.4286V51.4286H92.5714V46.2857Z" fill="black"/>
<path d="M5.14286 51.4286H0V56.5714H5.14286V51.4286Z" fill="black"/>
<path d="M10.2857 51.4286H5.14286V56.5714H10.2857V51.4286Z" fill="black"/>
<path d="M15.4286 51.4286L10.2857 51.4286V56.5714H15.4286V51.4286Z" fill="black"/>
<path d="M20.5714 51.4286L15.4286 51.4286V56.5714H20.5714V51.4286Z" fill="black"/>
<path d="M36 51.4286L30.8571 51.4286V56.5714H36V51.4286Z" fill="black"/>
<path d="M56.5714 51.4286H51.4286V56.5714H56.5714V51.4286Z" fill="black"/>
<path d="M61.7143 51.4286H56.5714V56.5714H61.7143V51.4286Z" fill="black"/>
<path d="M72 51.4286H66.8571V56.5714H72V51.4286Z" fill="black"/>
<path d="M82.2857 51.4286H77.1429V56.5714H82.2857V51.4286Z" fill="black"/>
<path d="M102.857 51.4286H97.7143V56.5714H102.857V51.4286Z" fill="black"/>
<path d="M5.14286 56.5714H0V61.7143H5.14286V56.5714Z" fill="black"/>
<path d="M20.5714 56.5714H15.4286V61.7143H20.5714V56.5714Z" fill="black"/>
<path d="M30.8571 56.5714L25.7143 56.5714V61.7143H30.8571V56.5714Z" fill="black"/>
<path d="M46.2857 56.5714H41.1429V61.7143H46.2857V56.5714Z" fill="black"/>
<path d="M51.4286 56.5714L46.2857 56.5714V61.7143H51.4286L51.4286 56.5714Z" fill="black"/>
<path d="M61.7143 56.5714H56.5714L56.5714 61.7143H61.7143V56.5714Z" fill="black"/>
<path d="M77.1429 56.5714H72V61.7143H77.1429V56.5714Z" fill="black"/>
<path d="M87.4286 56.5714L82.2857 56.5714V61.7143H87.4286V56.5714Z" fill="black"/>
<path d="M92.5714 56.5714H87.4286V61.7143H92.5714V56.5714Z" fill="black"/>
<path d="M102.857 56.5714H97.7143V61.7143H102.857V56.5714Z" fill="black"/>
<path d="M15.4286 61.7143H10.2857V66.8571H15.4286V61.7143Z" fill="black"/>
<path d="M25.7143 61.7143H20.5714V66.8571H25.7143V61.7143Z" fill="black"/>
<path d="M36 61.7143H30.8571V66.8571H36V61.7143Z" fill="black"/>
<path d="M51.4286 61.7143H46.2857L46.2857 66.8571H51.4286V61.7143Z" fill="black"/>
<path d="M56.5714 61.7143H51.4286V66.8571H56.5714L56.5714 61.7143Z" fill="black"/>
<path d="M61.7143 61.7143H56.5714L56.5714 66.8571H61.7143V61.7143Z" fill="black"/>
<path d="M66.8571 61.7143H61.7143V66.8571H66.8571V61.7143Z" fill="black"/>
<path d="M72 61.7143H66.8571V66.8571H72V61.7143Z" fill="black"/>
<path d="M92.5714 61.7143H87.4286V66.8571H92.5714V61.7143Z" fill="black"/>
<path d="M97.7143 61.7143H92.5714V66.8571H97.7143V61.7143Z" fill="black"/>
<path d="M102.857 61.7143H97.7143V66.8571H102.857V61.7143Z" fill="black"/>
<path d="M108 61.7143H102.857V66.8571H108V61.7143Z" fill="black"/>
<path d="M56.5714 66.8571H51.4286L51.4286 72H56.5714V66.8571Z" fill="black"/>
<path d="M61.7143 66.8571H56.5714V72H61.7143V66.8571Z" fill="black"/>
<path d="M66.8571 66.8571H61.7143V72H66.8571V66.8571Z" fill="black"/>
<path d="M72 66.8571H66.8571V72H72V66.8571Z" fill="black"/>
<path d="M77.1429 66.8571H72V72H77.1429V66.8571Z" fill="black"/>
<path d="M92.5714 66.8571H87.4286V72H92.5714V66.8571Z" fill="black"/>
<path d="M102.857 66.8571H97.7143V72H102.857V66.8571Z" fill="black"/>
<path d="M5.14286 72H0V77.1429H5.14286V72Z" fill="black"/>
<path d="M10.2857 72H5.14286V77.1429H10.2857V72Z" fill="black"/>
<path d="M15.4286 72H10.2857V77.1429H15.4286V72Z" fill="black"/>
<path d="M20.5714 72H15.4286V77.1429H20.5714V72Z" fill="black"/>
<path d="M25.7143 72H20.5714V77.1429H25.7143V72Z" fill="black"/>
<path d="M30.8571 72H25.7143V77.1429H30.8571V72Z" fill="black"/>
<path d="M36 72H30.8571V77.1429H36V72Z" fill="black"/>
<path d="M46.2857 72H41.1429V77.1429H46.2857V72Z" fill="black"/>
<path d="M51.4286 72H46.2857V77.1429H51.4286L51.4286 72Z" fill="black"/>
<path d="M92.5714 72H87.4286V77.1429H92.5714V72Z" fill="black"/>
<path d="M97.7143 72H92.5714V77.1429H97.7143V72Z" fill="black"/>
<path d="M102.857 72H97.7143V77.1429H102.857V72Z" fill="black"/>
<path d="M5.14286 77.1429H0V82.2857H5.14286V77.1429Z" fill="black"/>
<path d="M36 77.1429H30.8571V82.2857H36V77.1429Z" fill="black"/>
<path d="M46.2857 77.1429H41.1429V82.2857H46.2857V77.1429Z" fill="black"/>
<path d="M61.7143 77.1429H56.5714V82.2857H61.7143V77.1429Z" fill="black"/>
<path d="M77.1429 77.1429H72V82.2857H77.1429V77.1429Z" fill="black"/>
<path d="M82.2857 77.1429H77.1429V82.2857H82.2857V77.1429Z" fill="black"/>
<path d="M97.7143 77.1429H92.5714V82.2857H97.7143V77.1429Z" fill="black"/>
<path d="M108 77.1429H102.857V82.2857H108V77.1429Z" fill="black"/>
<path d="M5.14286 82.2857H0V87.4286H5.14286V82.2857Z" fill="black"/>
<path d="M15.4286 82.2857H10.2857V87.4286H15.4286V82.2857Z" fill="black"/>
<path d="M20.5714 82.2857H15.4286V87.4286H20.5714V82.2857Z" fill="black"/>
<path d="M25.7143 82.2857H20.5714V87.4286H25.7143V82.2857Z" fill="black"/>
<path d="M36 82.2857H30.8571V87.4286H36V82.2857Z" fill="black"/>
<path d="M46.2857 82.2857H41.1429V87.4286H46.2857V82.2857Z" fill="black"/>
<path d="M72 82.2857H66.8571V87.4286H72V82.2857Z" fill="black"/>
<path d="M82.2857 82.2857H77.1429V87.4286H82.2857V82.2857Z" fill="black"/>
<path d="M92.5714 82.2857H87.4286V87.4286H92.5714V82.2857Z" fill="black"/>
<path d="M102.857 82.2857H97.7143V87.4286H102.857V82.2857Z" fill="black"/>
<path d="M5.14286 87.4286H0V92.5714H5.14286V87.4286Z" fill="black"/>
<path d="M15.4286 87.4286H10.2857V92.5714H15.4286V87.4286Z" fill="black"/>
<path d="M20.5714 87.4286H15.4286V92.5714H20.5714V87.4286Z" fill="black"/>
<path d="M25.7143 87.4286H20.5714V92.5714H25.7143V87.4286Z" fill="black"/>
<path d="M36 87.4286H30.8571V92.5714H36V87.4286Z" fill="black"/>
<path d="M46.2857 87.4286H41.1429V92.5714H46.2857V87.4286Z" fill="black"/>
<path d="M51.4286 87.4286H46.2857V92.5714H51.4286V87.4286Z" fill="black"/>
<path d="M56.5714 87.4286H51.4286V92.5714H56.5714V87.4286Z" fill="black"/>
<path d="M66.8571 87.4286H61.7143V92.5714H66.8571V87.4286Z" fill="black"/>
<path d="M72 87.4286H66.8571V92.5714H72V87.4286Z" fill="black"/>
<path d="M87.4286 87.4286H82.2857V92.5714H87.4286V87.4286Z" fill="black"/>
<path d="M92.5714 87.4286H87.4286V92.5714H92.5714V87.4286Z" fill="black"/>
<path d="M97.7143 87.4286H92.5714V92.5714H97.7143V87.4286Z" fill="black"/>
<path d="M108 87.4286H102.857V92.5714H108V87.4286Z" fill="black"/>
<path d="M5.14286 92.5714H0V97.7143H5.14286V92.5714Z" fill="black"/>
<path d="M15.4286 92.5714H10.2857V97.7143H15.4286V92.5714Z" fill="black"/>
<path d="M20.5714 92.5714H15.4286V97.7143H20.5714V92.5714Z" fill="black"/>
<path d="M25.7143 92.5714H20.5714V97.7143H25.7143V92.5714Z" fill="black"/>
<path d="M36 92.5714H30.8571V97.7143H36V92.5714Z" fill="black"/>
<path d="M46.2857 92.5714H41.1429V97.7143H46.2857V92.5714Z" fill="black"/>
<path d="M51.4286 92.5714H46.2857V97.7143H51.4286V92.5714Z" fill="black"/>
<path d="M56.5714 92.5714H51.4286V97.7143H56.5714V92.5714Z" fill="black"/>
<path d="M61.7143 92.5714H56.5714V97.7143H61.7143V92.5714Z" fill="black"/>
<path d="M72 92.5714H66.8571V97.7143H72V92.5714Z" fill="black"/>
<path d="M82.2857 92.5714H77.1429V97.7143H82.2857V92.5714Z" fill="black"/>
<path d="M92.5714 92.5714H87.4286V97.7143H92.5714V92.5714Z" fill="black"/>
<path d="M97.7143 92.5714H92.5714V97.7143H97.7143V92.5714Z" fill="black"/>
<path d="M102.857 92.5714H97.7143V97.7143H102.857V92.5714Z" fill="black"/>
<path d="M5.14286 97.7143H0V102.857H5.14286V97.7143Z" fill="black"/>
<path d="M36 97.7143H30.8571V102.857H36V97.7143Z" fill="black"/>
<path d="M51.4286 97.7143H46.2857L46.2857 102.857H51.4286V97.7143Z" fill="black"/>
<path d="M66.8571 97.7143H61.7143V102.857H66.8571V97.7143Z" fill="black"/>
<path d="M72 97.7143H66.8571V102.857H72V97.7143Z" fill="black"/>
<path d="M82.2857 97.7143H77.1429V102.857H82.2857V97.7143Z" fill="black"/>
<path d="M108 97.7143H102.857V102.857H108V97.7143Z" fill="black"/>
<path d="M5.14286 102.857H0V108H5.14286V102.857Z" fill="black"/>
<path d="M10.2857 102.857H5.14286V108H10.2857V102.857Z" fill="black"/>
<path d="M15.4286 102.857H10.2857V108H15.4286V102.857Z" fill="black"/>
<path d="M20.5714 102.857H15.4286V108H20.5714V102.857Z" fill="black"/>
<path d="M25.7143 102.857H20.5714V108H25.7143V102.857Z" fill="black"/>
<path d="M30.8571 102.857H25.7143V108H30.8571V102.857Z" fill="black"/>
<path d="M36 102.857H30.8571V108H36V102.857Z" fill="black"/>
<path d="M51.4286 102.857H46.2857V108H51.4286V102.857Z" fill="black"/>
<path d="M72 102.857H66.8571V108H72V102.857Z" fill="black"/>
<path d="M87.4286 102.857H82.2857V108H87.4286V102.857Z" fill="black"/>
</svg>
