<svg width="20" height="20" viewBox="0 0 20 20" fill="none" xmlns="http://www.w3.org/2000/svg">
<path d="M20 10.0004C20 15.5222 15.5225 19.9992 9.9976 20C4.47672 20 -0.000799699 15.5222 4.28813e-07 9.9996C-0.00159983 4.47698 4.47592 0 9.9992 0C15.5225 0 20 4.47778 20 10.0004Z" fill="#EAB300"/>
<path d="M14.3006 7.52849C14.1655 6.12443 12.9536 5.6539 11.422 5.5197V3.57129H10.2369V5.46769C9.92569 5.46769 9.60697 5.47357 9.29076 5.48028V3.57129H8.10562L8.10478 5.51802C7.84812 5.52305 7.59566 5.52808 7.34991 5.52808V5.52221L5.71519 5.52137V6.78788C5.71519 6.78788 6.59084 6.77111 6.57575 6.78704C7.05635 6.78704 7.21235 7.06551 7.25765 7.30623V9.52555C7.2912 9.52555 7.33397 9.52723 7.38262 9.53394H7.25765L7.25681 12.6432C7.23584 12.7941 7.14693 13.0349 6.81143 13.0357C6.82653 13.0491 5.95004 13.0357 5.95004 13.0357L5.71436 14.4515H7.25765C7.5445 14.4515 7.82715 14.4565 8.10394 14.4582L8.10478 16.4284H9.28909V14.4792C9.61368 14.4859 9.92821 14.4884 10.236 14.4884L10.2352 16.4284H11.4203V14.4624C13.4132 14.3483 14.8097 13.8459 14.9825 11.9739C15.1226 10.4666 14.4138 9.79311 13.2824 9.52136C13.971 9.17244 14.4012 8.55596 14.3006 7.52849ZM12.6415 11.7407C12.6415 13.2127 10.1211 13.0458 9.31677 13.0458V10.4348C10.1211 10.4364 12.6415 10.2058 12.6415 11.7407ZM12.0897 8.05774C12.0897 9.39722 9.98608 9.24038 9.31677 9.24121V6.87427C9.98692 6.87427 12.0905 6.66123 12.0897 8.05774Z" fill="white"/>
<path d="M7.26001 9.47266H7.43615V9.60266H7.26001V9.47266Z" fill="white"/>
</svg>
