<svg width="14" height="14" viewBox="0 0 14 14" fill="none" xmlns="http://www.w3.org/2000/svg">
<path d="M13.9334 5.58551C13.9996 5.42558 14.017 5.2496 13.9832 5.07983C13.9494 4.91006 13.866 4.75413 13.7435 4.63177L9.36859 0.256836L8.13136 1.49407L11.0127 4.3754H0.00010137V6.12538H13.1249C13.298 6.12542 13.4671 6.07415 13.611 5.97806C13.7549 5.88196 13.8671 5.74536 13.9334 5.58551ZM0.0666006 8.41522C0.000359851 8.57514 -0.0169572 8.75112 0.0168409 8.92089C0.050639 9.09066 0.134034 9.24659 0.256473 9.36895L4.63141 13.7439L5.86864 12.5067L2.98731 9.62533H13.9999V7.87535H0.875089C0.70202 7.87519 0.532799 7.92641 0.388869 8.02252C0.244939 8.11863 0.132779 8.2553 0.0666006 8.41522Z" fill="#0D63D3"/>
</svg>
