<svg width="20" height="21" viewBox="0 0 20 21" fill="none" xmlns="http://www.w3.org/2000/svg">
<path d="M2.35742 20.375C1.80742 20.375 1.33676 20.1793 0.945422 19.788C0.553422 19.396 0.357422 18.925 0.357422 18.375V2.375C0.357422 1.825 0.553422 1.354 0.945422 0.962C1.33676 0.570667 1.80742 0.375 2.35742 0.375H10.3574L16.3574 6.375V10.375H14.3574V7.375H9.35742V2.375H2.35742V18.375H8.35742V20.375H2.35742ZM14.6574 12.9L15.7324 13.975L11.8574 17.825V18.875H12.9074L16.7824 15.025L17.8324 16.075L13.5324 20.375H10.3574V17.2L14.6574 12.9ZM17.8324 16.075L14.6574 12.9L16.1074 11.45C16.2908 11.2667 16.5241 11.175 16.8074 11.175C17.0908 11.175 17.3241 11.2667 17.5074 11.45L19.2824 13.225C19.4658 13.4083 19.5574 13.6417 19.5574 13.925C19.5574 14.2083 19.4658 14.4417 19.2824 14.625L17.8324 16.075Z" fill="#F1F1F1"/>
</svg>
