<svg width="16" height="16" viewBox="0 0 16 16" fill="none" xmlns="http://www.w3.org/2000/svg">
<path d="M13.75 4.5H10.5V1.25C10.5 1.1837 10.4737 1.12011 10.4268 1.07322C10.3799 1.02634 10.3163 1 10.25 1H3.25C3.1837 1 3.12011 1.02634 3.07322 1.07322C3.02634 1.12011 3 1.1837 3 1.25V8.25C3 8.3163 3.02634 8.37989 3.07322 8.42678C3.12011 8.47366 3.1837 8.5 3.25 8.5H10V12.5H3.25C3.1837 12.5 3.12011 12.5263 3.07322 12.5732C3.02634 12.6201 3 12.6837 3 12.75V14.75C3 14.8163 3.02634 14.8799 3.07322 14.9268C3.12011 14.9737 3.1837 15 3.25 15H13.75C13.8163 15 13.8799 14.9737 13.9268 14.9268C13.9737 14.8799 14 14.8163 14 14.75V4.75C14 4.6837 13.9737 4.62011 13.9268 4.57322C13.8799 4.52634 13.8163 4.5 13.75 4.5Z" fill="#EEEEEE"/>
<path d="M10.25 8H2.25C2.11193 8 2 8.11193 2 8.25V12.75C2 12.8881 2.11193 13 2.25 13H10.25C10.3881 13 10.5 12.8881 10.5 12.75V8.25C10.5 8.11193 10.3881 8 10.25 8Z" fill="#66BB6A"/>
<path d="M13.9275 4.57298L10.4275 1.07298C10.3925 1.03772 10.3479 1.01367 10.2992 1.00391C10.2505 0.99414 10.2 0.999093 10.1541 1.01813C10.1083 1.03718 10.0691 1.06944 10.0417 1.11082C10.0142 1.1522 9.99972 1.20082 10 1.25048V4.75048C10 4.81678 10.0263 4.88037 10.0732 4.92725C10.1201 4.97414 10.1837 5.00048 10.25 5.00048H13.75C13.7997 5.00077 13.8483 4.98626 13.8897 4.95881C13.931 4.93136 13.9633 4.89221 13.9823 4.84635C14.0014 4.80049 14.0063 4.74999 13.9966 4.70131C13.9868 4.65262 13.9628 4.60795 13.9275 4.57298Z" fill="#E0E0E0"/>
<path d="M4.74996 10.8303H5.19996C5.18426 10.968 5.13252 11.0991 5.04996 11.2103C4.9708 11.3134 4.86787 11.3957 4.74996 11.4503C4.62366 11.5081 4.48636 11.538 4.34746 11.5378C4.21811 11.5428 4.08921 11.5197 3.96965 11.4701C3.8501 11.4205 3.74273 11.3455 3.65496 11.2503C3.46964 11.0457 3.37261 10.7761 3.38496 10.5003C3.37389 10.2256 3.46876 9.95711 3.64996 9.75032C3.73366 9.65496 3.83726 9.57912 3.95346 9.52815C4.06965 9.47718 4.19561 9.45232 4.32246 9.45532C4.45002 9.45244 4.57669 9.47732 4.69368 9.52826C4.81066 9.5792 4.91517 9.65497 4.99996 9.75032C5.10653 9.87507 5.17508 10.0278 5.19746 10.1903H4.74996C4.72777 10.1021 4.67563 10.0243 4.60246 9.97032C4.52085 9.91703 4.42489 9.88998 4.32746 9.89282C4.25652 9.89085 4.18606 9.90515 4.12149 9.93461C4.05693 9.96408 3.99996 10.0079 3.95496 10.0628C3.85781 10.1874 3.80818 10.3425 3.81496 10.5003C3.80823 10.659 3.85981 10.8146 3.95996 10.9378C4.00571 10.9923 4.06324 11.0357 4.1282 11.0647C4.19316 11.0937 4.26385 11.1076 4.33496 11.1053C4.42457 11.1105 4.51345 11.0865 4.58828 11.037C4.6631 10.9874 4.71983 10.9149 4.74996 10.8303ZM5.58746 10.9053H5.99996C6.01746 10.9885 6.06528 11.0623 6.13413 11.1122C6.20298 11.1621 6.28793 11.1846 6.37246 11.1753C6.45068 11.1793 6.52803 11.1574 6.59246 11.1128C6.6188 11.0937 6.64008 11.0685 6.65446 11.0393C6.66883 11.0101 6.67587 10.9778 6.67496 10.9453C6.67731 10.9021 6.66502 10.8593 6.64007 10.8239C6.61512 10.7886 6.57897 10.7626 6.53746 10.7503C6.51913 10.7503 6.43579 10.7253 6.28746 10.6753C6.13058 10.6416 5.98027 10.5825 5.84246 10.5003C5.77595 10.4518 5.72244 10.3877 5.68667 10.3135C5.65091 10.2394 5.63401 10.1576 5.63746 10.0753C5.63407 9.99192 5.64911 9.9088 5.68152 9.83188C5.71393 9.75496 5.76291 9.68614 5.82496 9.63032C5.96407 9.5126 6.14301 9.45266 6.32496 9.46282C6.50443 9.45596 6.68085 9.51065 6.82496 9.61782C6.88798 9.66387 6.93934 9.72403 6.97494 9.79349C7.01054 9.86295 7.02938 9.93977 7.02996 10.0178H6.61246C6.59916 9.9554 6.56249 9.90043 6.50997 9.86417C6.45744 9.82792 6.39304 9.81312 6.32996 9.82282C6.2615 9.81955 6.19386 9.83887 6.13746 9.87782C6.11438 9.89474 6.09573 9.91699 6.08311 9.94267C6.07049 9.96836 6.06426 9.99671 6.06496 10.0253C6.06311 10.0571 6.07066 10.0888 6.08666 10.1164C6.10266 10.1439 6.12641 10.1662 6.15496 10.1803C6.25531 10.2223 6.36017 10.2525 6.46746 10.2703C6.6063 10.2936 6.73998 10.3409 6.86246 10.4103C6.94213 10.4612 7.00711 10.5321 7.05096 10.6158C7.09481 10.6996 7.11601 10.7933 7.11246 10.8878C7.11661 10.9933 7.09263 11.0979 7.04299 11.1911C6.99335 11.2842 6.91982 11.3625 6.82996 11.4178C6.68841 11.5003 6.52611 11.5402 6.36246 11.5328C6.23841 11.5438 6.11358 11.5237 5.99923 11.4744C5.88487 11.4251 5.7846 11.3481 5.70746 11.2503C5.63867 11.1474 5.59736 11.0287 5.58746 10.9053ZM8.06496 11.5003L7.31496 9.50032H7.76246L8.24996 10.8503L8.66746 9.50032H9.10496L8.44246 11.5003H8.06496Z" fill="white"/>
</svg>
