<svg width="48" height="49" viewBox="0 0 48 49" fill="none" xmlns="http://www.w3.org/2000/svg">
<path d="M0.998535 34.256L16.425 20.7578L29.9231 34.256" stroke="url(#paint0_linear_7109_12202)" stroke-linecap="round" stroke-linejoin="round"/>
<path d="M8.71176 1.47461H39.5646C43.8069 1.47461 47.2779 4.94556 47.2779 9.18783V40.0407C47.2779 44.283 43.8069 47.7539 39.5646 47.7539H8.71176C4.46948 47.7539 0.998535 44.283 0.998535 40.0407V9.18783C0.998535 4.94556 4.46948 1.47461 8.71176 1.47461Z" stroke="url(#paint1_linear_7109_12202)" stroke-linecap="round" stroke-linejoin="round"/>
<path d="M47.2767 34.2562L39.5634 26.543L30.1147 34.449" stroke="url(#paint2_linear_7109_12202)" stroke-linecap="round" stroke-linejoin="round"/>
<path d="M30.8872 22.6864C33.5496 22.6864 35.7079 20.5281 35.7079 17.8657C35.7079 15.2033 33.5496 13.0449 30.8872 13.0449C28.2247 13.0449 26.0664 15.2033 26.0664 17.8657C26.0664 20.5281 28.2247 22.6864 30.8872 22.6864Z" stroke="url(#paint3_linear_7109_12202)" stroke-linecap="round" stroke-linejoin="round"/>
<defs>
<linearGradient id="paint0_linear_7109_12202" x1="16.9071" y1="18.6331" x2="17.2627" y2="42.5637" gradientUnits="userSpaceOnUse">
<stop stop-color="#4766F9"/>
<stop offset="1" stop-color="#1C1C93"/>
</linearGradient>
<linearGradient id="paint1_linear_7109_12202" x1="26.4522" y1="-5.8101" x2="29.0632" y2="76.1727" gradientUnits="userSpaceOnUse">
<stop stop-color="#4766F9"/>
<stop offset="1" stop-color="#1C1C93"/>
</linearGradient>
<linearGradient id="paint2_linear_7109_12202" x1="39.5538" y1="25.2985" x2="39.7594" y2="39.3151" gradientUnits="userSpaceOnUse">
<stop stop-color="#4766F9"/>
<stop offset="1" stop-color="#1C1C93"/>
</linearGradient>
<linearGradient id="paint3_linear_7109_12202" x1="31.3692" y1="11.5273" x2="31.9132" y2="28.607" gradientUnits="userSpaceOnUse">
<stop stop-color="#4766F9"/>
<stop offset="1" stop-color="#1C1C93"/>
</linearGradient>
</defs>
</svg>
