<svg width="21" height="20" viewBox="0 0 21 20" fill="none" xmlns="http://www.w3.org/2000/svg">
<path d="M10.3333 20C15.8561 20 20.3333 15.5228 20.3333 10C20.3333 4.47715 15.8561 0 10.3333 0C4.8104 0 0.333252 4.47715 0.333252 10C0.333252 15.5228 4.8104 20 10.3333 20Z" fill="#627EEA"/>
<path d="M10.6445 2.5V8.04375L15.3302 10.1375L10.6445 2.5Z" fill="white" fill-opacity="0.602"/>
<path d="M10.6445 2.5L5.95825 10.1375L10.6445 8.04375V2.5Z" fill="white"/>
<path d="M10.6445 13.7298V17.4966L15.3333 11.0098L10.6445 13.7298Z" fill="white" fill-opacity="0.602"/>
<path d="M10.6445 17.4966V13.7291L5.95825 11.0098L10.6445 17.4966Z" fill="white"/>
<path d="M10.6445 12.858L15.3302 10.1374L10.6445 8.04492V12.858Z" fill="white" fill-opacity="0.2"/>
<path d="M5.95825 10.1374L10.6445 12.858V8.04492L5.95825 10.1374Z" fill="white" fill-opacity="0.602"/>
</svg>
