<svg width="712" height="743" viewBox="0 0 712 743" fill="none" xmlns="http://www.w3.org/2000/svg">
<rect width="712" height="743" fill="#3949AB"/>
<g clip-path="url(#clip0_5749_61744)">
<path fill-rule="evenodd" clip-rule="evenodd" d="M161.132 153.694V167.037H162.861V151.965C162.861 151.8 162.861 151.635 162.779 151.471C162.697 151.306 162.614 151.224 162.532 151.059C162.45 150.977 162.285 150.894 162.12 150.812C161.955 150.73 161.791 150.73 161.626 150.73H145.731V152.377H159.979C160.308 152.377 160.555 152.541 160.802 152.706C160.967 153.036 161.132 153.365 161.132 153.694ZM157.59 157.071V166.954H159.32V155.424C159.32 155.259 159.32 155.095 159.238 154.93C159.155 154.765 159.073 154.683 158.99 154.518C158.908 154.353 158.743 154.353 158.579 154.271C158.414 154.189 158.249 154.189 158.085 154.189H145.731V155.836H156.355C156.684 155.836 157.014 155.918 157.179 156.165C157.426 156.495 157.59 156.824 157.59 157.071ZM130 149H163.108C163.356 149 163.52 149 163.767 149.082C164.014 149.165 164.179 149.247 164.344 149.412C164.509 149.659 164.591 149.824 164.673 149.988C164.756 150.153 164.838 150.4 164.838 150.647V159.377C164.838 167.778 161.626 175.932 155.778 182.026C155.12 182.685 154.461 183.344 153.802 183.92C148.119 189.027 140.954 192.074 133.377 192.65H130V184.003C144.248 184.003 155.778 172.802 155.778 159.048V158.883C155.778 158.718 155.778 158.554 155.696 158.389C155.614 158.224 155.531 158.142 155.449 157.977C155.367 157.812 155.202 157.812 155.037 157.73C154.873 157.648 154.708 157.648 154.543 157.648H130V149Z" fill="white"/>
<path d="M269.187 175.19V166.46H277.918V157.73H260.375V175.273C260.375 179.885 262.187 184.332 265.481 187.626C268.776 190.921 273.223 192.733 277.835 192.733V184.003C275.529 184.003 273.305 183.097 271.658 181.449C270.093 179.802 269.187 177.579 269.187 175.19Z" fill="white"/>
<path d="M204.041 157.73V175.108C204.041 179.72 202.229 184.167 198.935 187.379C195.64 190.591 191.275 192.486 186.663 192.486C182.051 192.486 177.604 190.674 174.392 187.379C171.097 184.085 169.285 179.72 169.285 175.108V157.73H178.015V175.108C178.015 177.414 178.921 179.638 180.569 181.285C182.216 182.932 184.44 183.838 186.746 183.838C189.052 183.838 191.275 182.932 192.923 181.285C194.57 179.638 195.476 177.414 195.476 175.108V157.73H204.041Z" fill="white"/>
<path fill-rule="evenodd" clip-rule="evenodd" d="M218.454 170.743C217.466 172.143 216.971 173.872 216.971 175.602C216.971 177.908 217.877 180.132 219.525 181.697C221.172 183.344 223.395 184.25 225.619 184.25C227.349 184.25 228.996 183.756 230.478 182.767C231.879 181.779 233.032 180.461 233.69 178.896C234.349 177.331 234.514 175.602 234.185 173.872C233.855 172.225 233.032 170.66 231.796 169.425C230.561 168.19 228.996 167.366 227.349 167.037C225.702 166.707 223.89 166.872 222.325 167.531C220.76 168.19 219.442 169.26 218.454 170.743ZM234.349 160.53C236.985 162.095 239.208 164.236 240.691 166.872V166.954C242.256 169.59 242.997 172.555 242.997 175.602C242.997 178.649 242.173 181.614 240.691 184.25C239.126 186.885 236.985 189.109 234.349 190.591C231.714 192.074 228.749 192.897 225.702 192.897C222.654 192.897 219.689 192.074 217.054 190.591V201.71H208.324V175.52C208.324 172.472 209.147 169.507 210.63 166.872C212.195 164.236 214.336 162.013 216.971 160.53C219.607 159.048 222.572 158.224 225.619 158.224C228.666 158.224 231.714 158.965 234.349 160.53Z" fill="white"/>
<path d="M256.01 157.73H247.362V192.733H256.01V157.73Z" fill="white"/>
<path d="M286.648 192.486C289.058 192.486 291.013 190.532 291.013 188.121C291.013 185.71 289.058 183.756 286.648 183.756C284.237 183.756 282.282 185.71 282.282 188.121C282.282 190.532 284.237 192.486 286.648 192.486Z" fill="white"/>
</g>
<circle opacity="0.6" cx="422.5" cy="365.5" r="110.5" fill="#00227B"/>
<path d="M453.672 471.188H395.247C385.227 471.188 377.029 463.022 377.029 453.042V401.628C377.029 391.648 385.227 383.482 395.247 383.482H453.673C463.693 383.482 471.891 391.648 471.891 401.628V453.042C471.891 463.022 463.692 471.188 453.672 471.188Z" fill="white"/>
<path d="M453.672 383.482C463.692 383.482 471.89 391.647 471.89 401.628V453.042C471.89 463.022 463.692 471.187 453.672 471.187H395.248C385.227 471.187 377.029 463.022 377.029 453.042V401.628C377.029 391.647 385.227 383.482 395.248 383.482H453.672ZM453.672 380.614H395.248C392.41 380.614 389.651 381.173 387.048 382.274C384.539 383.336 382.283 384.853 380.345 386.784C378.407 388.715 376.883 390.962 375.817 393.461C374.711 396.054 374.15 398.801 374.15 401.628V453.042C374.15 455.868 374.711 458.616 375.817 461.208C376.883 463.708 378.406 465.954 380.345 467.885C382.283 469.815 384.539 471.333 387.048 472.395C389.651 473.496 392.41 474.055 395.248 474.055H453.673C456.511 474.055 459.269 473.496 461.872 472.395C464.382 471.333 466.637 469.816 468.576 467.885C470.514 465.954 472.038 463.707 473.104 461.208C474.21 458.616 474.771 455.868 474.771 453.042V401.628C474.771 398.801 474.21 396.054 473.104 393.461C472.038 390.961 470.515 388.715 468.576 386.784C466.637 384.854 464.381 383.336 461.872 382.274C459.269 381.173 456.51 380.614 453.672 380.614Z" fill="#00227B"/>
<path d="M470.584 439.396C461.488 440.458 452.421 440.72 452.421 440.72C452.421 440.72 447.803 417.787 446.523 399.805C445.58 386.481 446.467 375.878 452.421 379.336C455.16 380.927 458.314 383.924 461.604 387.726C473.941 401.989 488.115 427.601 488.893 432.915C489.395 436.333 479.977 438.293 470.584 439.396Z" fill="white"/>
<path d="M451.203 442.247L450.954 441.014C450.926 440.873 448.103 426.782 446.275 412.192C445.197 403.59 444.671 396.487 444.709 391.083C444.761 383.701 445.837 379.514 448.095 377.907C449.087 377.202 450.773 376.654 453.176 378.05C461.096 382.652 471.147 397.313 476.434 405.642C479.961 411.198 483.337 417.038 485.941 422.086C487.775 425.643 490.034 430.371 490.375 432.699C490.475 433.375 490.408 434.4 489.528 435.444C488.255 436.954 485.612 438.136 481.207 439.162C477.978 439.914 473.829 440.561 468.874 441.086C460.486 441.973 452.544 442.208 452.465 442.211L451.203 442.247ZM450.359 380.167C450.07 380.167 449.918 380.275 449.835 380.333C448.859 381.028 445.931 385.35 449.244 411.807C450.744 423.79 452.922 435.439 453.646 439.184C456.2 439.081 462.261 438.787 468.575 438.118C483.233 436.565 486.508 434.39 487.236 433.527C487.437 433.288 487.421 433.178 487.413 433.13C486.988 430.233 481.458 419.136 473.904 407.235C465.156 393.452 457.052 383.753 451.668 380.625C451.057 380.27 450.642 380.167 450.359 380.167Z" fill="#00227B"/>
<path d="M406.134 378.49L404.293 392.362L403.245 400.249L401.012 417.087C401.012 417.087 396.929 419.853 390.138 422.044C387.601 422.865 384.678 423.598 381.453 424.079C376.181 424.869 370.085 424.97 363.48 423.624C346.489 420.158 336.291 407.587 331.877 401.267C323.344 389.067 322.031 385.769 324.403 380.633C326.213 376.697 329.316 375.978 329.316 375.978C329.316 375.978 329.163 372.833 331.663 371.715C339.154 368.364 348.804 377.313 348.804 377.313C348.804 377.313 349.164 367.689 354.335 369.911C357.897 371.443 358.705 381.92 358.705 381.92C358.705 381.92 363.487 388.04 371.084 388.852C375.053 389.276 380.547 388.129 386.003 386.463C386.066 386.444 386.13 386.426 386.194 386.403C389.101 385.509 391.99 384.472 394.635 383.447C395.822 382.989 396.959 382.53 398.025 382.091C402.792 380.123 406.134 378.49 406.134 378.49Z" fill="white"/>
<path opacity="0.35" d="M331.874 401.267C336.293 407.586 346.489 420.159 363.479 423.624C374.121 425.793 383.447 424.2 390.139 422.042C396.93 419.853 401.011 417.086 401.011 417.086L401.311 403.798C401.311 403.798 396.684 399.356 392.374 401.167C387.196 403.343 388.855 410.739 381.459 412.796C360.899 418.514 344.197 408.067 338.823 403.48C331.367 397.118 329.422 393.11 328.373 391.457C326.202 388.035 324.525 385.347 323.58 382.939C322.616 387.012 324.673 390.967 331.874 401.267Z" fill="#00227B"/>
<path d="M373.732 426.148C370.184 426.148 366.651 425.793 363.179 425.084C355.541 423.526 348.415 420.019 342 414.658C337.872 411.208 334.052 406.988 330.647 402.119C326.492 396.175 323.851 392.093 322.647 388.813C321.492 385.67 321.607 383.12 323.04 380.01C324.451 376.946 326.584 375.538 327.874 374.934C328.084 373.359 328.904 371.316 331.049 370.357C337.14 367.631 344.17 371.849 347.649 374.445C347.683 374.269 347.721 374.089 347.761 373.906C348.338 371.33 349.334 369.581 350.72 368.71C351.572 368.175 352.992 367.712 354.93 368.545C356.896 369.391 358.33 371.881 359.315 376.158C359.82 378.349 360.062 380.406 360.154 381.317C361.212 382.511 365.347 386.739 371.245 387.369C382.01 388.518 405.24 377.265 405.474 377.151C405.969 376.909 406.558 376.959 407.006 377.28C407.454 377.6 407.688 378.141 407.616 378.685L402.497 417.281C402.441 417.702 402.208 418.079 401.855 418.318C401.684 418.434 397.579 421.19 390.752 423.411C386.754 424.713 382.64 425.56 378.526 425.931C376.927 426.076 375.328 426.148 373.732 426.148ZM329.662 377.427C329.469 377.479 327.184 378.161 325.76 381.252C323.842 385.415 324.313 387.841 333.103 400.414C341.367 412.235 351.974 419.755 363.779 422.163C374.535 424.356 383.877 422.511 389.821 420.577C394.86 418.937 398.334 416.981 399.619 416.2L404.289 380.995C401.85 382.105 397.859 383.848 393.381 385.52C383.412 389.24 375.856 390.859 370.925 390.333C362.791 389.465 357.736 383.106 357.524 382.836C357.344 382.605 357.235 382.326 357.213 382.034C357.212 382.01 357.008 379.465 356.39 376.792C355.347 372.286 354.1 371.435 353.743 371.281C352.849 370.897 352.463 371.139 352.318 371.23C351.06 372.018 350.379 375.294 350.296 377.368C350.273 377.95 349.911 378.466 349.371 378.689C348.829 378.911 348.209 378.799 347.78 378.402C347.691 378.32 338.767 370.171 332.275 373.076C330.779 373.745 330.806 375.765 330.81 375.91C330.854 376.646 330.385 377.274 329.662 377.427Z" fill="#00227B"/>
<path d="M350.035 377.311C350.07 377.73 350.007 378.111 349.923 378.441C349.881 378.612 349.829 378.759 349.777 378.911C349.723 379.053 349.665 379.197 349.607 379.325C349.371 379.855 349.116 380.293 348.873 380.719C348.63 381.141 348.395 381.544 348.177 381.947L348.018 382.25C347.967 382.352 347.914 382.453 347.865 382.555L347.724 382.863L347.589 383.174L347.466 383.491L347.353 383.812C347.314 383.919 347.285 384.029 347.251 384.138C347.215 384.247 347.188 384.359 347.158 384.469C347.044 384.915 346.946 385.374 346.89 385.847C346.828 386.319 346.788 386.803 346.777 387.296C346.765 387.543 346.77 387.791 346.767 388.043C346.763 388.169 346.774 388.294 346.774 388.421C346.777 388.548 346.781 388.675 346.78 388.803V388.812C346.78 388.912 346.7 388.992 346.599 388.992C346.529 388.992 346.469 388.953 346.44 388.894C346.199 388.431 345.982 387.949 345.814 387.446C345.637 386.944 345.511 386.421 345.418 385.886C345.235 384.816 345.239 383.683 345.44 382.577L345.523 382.164C345.555 382.028 345.591 381.893 345.624 381.756C345.66 381.621 345.701 381.488 345.739 381.353C345.778 381.219 345.825 381.089 345.869 380.957C346.049 380.433 346.272 379.934 346.501 379.467C346.73 379.001 346.974 378.561 347.171 378.179C347.379 377.792 347.497 377.478 347.566 377.309L347.711 376.954C347.963 376.338 348.668 376.043 349.286 376.293C349.722 376.472 349.998 376.874 350.035 377.311Z" fill="#00227B"/>
<path d="M361.835 424.648C361.457 424.648 361.093 424.44 360.914 424.08C360.66 423.574 360.867 422.959 361.376 422.707C365.525 420.651 368.36 414.234 369.573 404.15C370.514 396.336 370.123 389.068 370.119 388.996C370.087 388.431 370.521 387.948 371.088 387.916C371.652 387.884 372.14 388.316 372.172 388.881C372.176 388.955 372.577 396.378 371.618 404.367C371.052 409.094 370.126 413.106 368.867 416.289C367.238 420.41 365.026 423.186 362.292 424.541C362.145 424.614 361.989 424.648 361.835 424.648Z" fill="#00227B"/>
<g opacity="0.35">
<g opacity="0.35">
<g opacity="0.35">
<g opacity="0.35">
<path opacity="0.35" d="M494.569 490.583V490.374C492.925 490.445 494.569 490.583 494.569 490.583Z" fill="#00227B"/>
</g>
</g>
</g>
</g>
<path d="M473.81 465.418H375.005C375.005 465.418 375.607 448.434 381.452 424.078C383.794 414.31 386.983 403.356 391.312 391.836C392.352 389.07 393.46 386.272 394.635 383.446C397.92 375.564 401.752 367.491 406.22 359.418H442.596C446.289 366.093 449.548 372.764 452.422 379.335C454.281 383.584 455.98 387.788 457.53 391.917C464.291 409.919 468.262 426.534 470.585 439.395C473.451 455.262 473.81 465.418 473.81 465.418Z" fill="white"/>
<path d="M460.246 404.584C462.156 406.707 463.029 409.179 463.835 411.661C464.24 412.902 464.639 414.146 465.02 415.396C465.211 416.02 465.406 416.644 465.577 417.274C465.752 417.903 465.922 418.534 466.093 419.164L466.594 421.058C466.758 421.69 466.924 422.321 467.079 422.956L467.988 426.766C468.136 427.402 468.298 428.034 468.443 428.671L468.877 430.58L469.322 432.487C469.472 433.122 469.626 433.756 469.766 434.394L470.623 438.215C470.771 438.851 470.897 439.492 471.033 440.13L471.435 442.047L471.635 443.005L471.736 443.484L471.83 443.965L472.206 445.886C472.331 446.527 472.46 447.167 472.596 447.805C472.726 448.445 472.856 449.085 472.993 449.725C473.566 452.276 473.984 454.859 474.157 457.477C474.179 457.804 474.205 458.13 474.221 458.459L474.263 459.443C474.284 460.1 474.302 460.756 474.292 461.418C474.288 462.077 474.273 462.738 474.23 463.401C474.192 464.064 474.137 464.727 474.036 465.395C474.017 465.523 473.896 465.612 473.767 465.593C473.679 465.58 473.61 465.52 473.58 465.443L473.58 465.44C473.107 464.19 472.721 462.935 472.357 461.679C472.178 461.051 472.005 460.422 471.838 459.794L471.598 458.849C471.522 458.533 471.444 458.218 471.365 457.903C471.059 456.642 470.789 455.377 470.546 454.107C470.429 453.471 470.323 452.834 470.226 452.194C470.122 451.556 470.025 450.917 469.926 450.278C469.829 449.638 469.727 448.999 469.623 448.361C469.513 447.723 469.39 447.088 469.266 446.453L468.893 444.548L468.8 444.072L468.701 443.597L468.502 442.647L468.103 440.746C467.968 440.114 467.843 439.479 467.697 438.848L466.846 435.058C466.71 434.426 466.55 433.798 466.399 433.169L465.935 431.283L465.458 429.401C465.381 429.087 465.293 428.775 465.209 428.463L464.953 427.526L463.925 423.781C463.57 422.536 463.206 421.294 462.86 420.046C462.687 419.423 462.514 418.799 462.346 418.174L462.221 417.705L462.089 417.238L461.828 416.303C461.48 415.057 461.15 413.805 460.825 412.551L460.587 411.608C460.507 411.295 460.419 410.983 460.335 410.67C460.168 410.044 460.028 409.41 459.923 408.765C459.818 408.119 459.745 407.463 459.717 406.793C459.702 406.458 459.7 406.119 459.713 405.775C459.726 405.43 459.748 405.082 459.809 404.722L459.812 404.708C459.835 404.572 459.964 404.481 460.1 404.504C460.159 404.514 460.21 404.544 460.246 404.584Z" fill="#00227B"/>
<path d="M374.773 465.41C374.621 465.072 374.516 464.737 374.419 464.401C374.321 464.063 374.247 463.729 374.182 463.393C374.051 462.721 373.98 462.054 373.941 461.387C373.922 461.054 373.91 460.721 373.911 460.389C373.912 460.057 373.925 459.727 373.941 459.397L373.996 458.406C374.014 458.076 374.034 457.746 374.061 457.416C374.164 456.098 374.265 454.779 374.419 453.468C374.489 452.811 374.567 452.155 374.645 451.499C374.683 451.171 374.734 450.845 374.778 450.517L374.917 449.536L375.208 447.577C375.31 446.924 375.428 446.275 375.539 445.625C375.766 444.324 375.98 443.022 376.239 441.728C376.491 440.433 376.721 439.134 376.979 437.841C377.241 436.548 377.496 435.254 377.747 433.959C377.812 433.636 377.869 433.311 377.939 432.989L378.147 432.022L378.56 430.088L378.974 428.154C379.01 427.993 379.042 427.831 379.079 427.671L379.192 427.19L379.419 426.227L380.327 422.376C380.4 422.055 380.482 421.735 380.564 421.416C380.643 421.095 380.723 420.776 380.799 420.455C380.952 419.814 381.104 419.172 381.249 418.529C381.398 417.886 381.544 417.242 381.698 416.601C381.846 415.957 382.032 415.325 382.218 414.691C382.408 414.059 382.609 413.431 382.821 412.805C383.033 412.179 383.258 411.557 383.486 410.937L383.838 410.01C383.898 409.855 383.963 409.703 384.028 409.55C384.093 409.397 384.155 409.244 384.223 409.092C384.488 408.483 384.757 407.876 385.044 407.276C385.327 406.673 385.622 406.076 385.932 405.484C386.242 404.893 386.564 404.305 386.921 403.73C386.99 403.619 387.135 403.585 387.246 403.654C387.322 403.7 387.362 403.783 387.358 403.867V403.87C387.21 406.574 386.702 409.147 386.2 411.72C386.071 412.361 385.939 413.002 385.794 413.64C385.648 414.277 385.492 414.91 385.326 415.54C384.979 416.797 384.63 418.053 384.266 419.307C384.084 419.934 383.907 420.562 383.732 421.19C383.643 421.504 383.56 421.82 383.476 422.134C383.392 422.45 383.307 422.765 383.236 423.083L382.338 426.893L382.114 427.845L382.002 428.322C381.965 428.48 381.933 428.64 381.898 428.799L381.489 430.713L381.079 432.626L380.874 433.583C380.806 433.902 380.748 434.223 380.685 434.543C379.633 439.656 378.926 444.83 378.239 449.993L377.973 451.929C377.89 452.575 377.807 453.22 377.716 453.865L377.186 457.736C377.09 458.381 377.013 459.026 376.926 459.671C376.88 459.993 376.833 460.315 376.772 460.637C376.713 460.958 376.655 461.279 376.582 461.6C376.438 462.24 376.26 462.88 376.048 463.517C375.943 463.836 375.817 464.156 375.688 464.473C375.556 464.791 375.412 465.111 375.234 465.428L375.232 465.431C375.163 465.554 375.008 465.599 374.884 465.53C374.832 465.5 374.795 465.458 374.773 465.41Z" fill="#00227B"/>
<path d="M403.463 443.99C397.827 446.262 389.106 445.787 383.161 445.07C379.595 444.641 377.091 441.363 377.617 437.823C378.097 434.594 380.951 432.245 384.225 432.398C389.786 432.657 398.128 432.779 403.411 431.612" fill="white"/>
<g opacity="0.35">
<g opacity="0.35">
<g opacity="0.35">
<g opacity="0.35">
<path opacity="0.35" d="M403.464 443.989C397.827 446.265 389.106 445.785 383.161 445.073C379.595 444.642 377.092 441.363 377.618 437.826C377.722 437.104 377.95 436.426 378.273 435.808C379.212 437.593 380.99 438.909 383.161 439.172C389.095 439.889 397.802 440.364 403.439 438.103L403.464 443.989Z" fill="#00227B"/>
</g>
</g>
</g>
</g>
<path d="M392.259 447.153C388.998 447.153 385.757 446.885 382.981 446.551C380.855 446.294 378.968 445.219 377.668 443.523C376.366 441.823 375.822 439.722 376.136 437.606C376.422 435.678 377.411 433.933 378.92 432.693C380.431 431.452 382.34 430.818 384.295 430.91C392.487 431.292 399.16 431.025 403.086 430.158C403.874 429.984 405.832 429.978 406.988 433.679C408.162 437.44 408.032 443.757 404.024 445.373C400.719 446.705 396.474 447.153 392.259 447.153ZM383.921 433.882C381.507 433.882 379.455 435.633 379.098 438.041C378.903 439.354 379.24 440.659 380.048 441.713C380.854 442.765 382.023 443.431 383.341 443.59C391.843 444.614 398.79 444.266 402.901 442.608C404.122 442.116 404.473 440.145 404.567 439.321C404.896 436.436 404.015 433.771 403.463 433.126C398.105 434.248 390.032 434.162 384.155 433.887C384.076 433.883 383.998 433.882 383.921 433.882Z" fill="#00227B"/>
<path d="M446.566 443.99C452.201 446.262 460.923 445.787 466.868 445.07C470.434 444.641 472.937 441.363 472.412 437.823C471.932 434.594 469.078 432.245 465.804 432.398C460.243 432.657 451.901 432.779 446.618 431.612" fill="white"/>
<g opacity="0.35">
<g opacity="0.35">
<g opacity="0.35">
<g opacity="0.35">
<path opacity="0.35" d="M466.866 445.073C460.921 445.785 452.2 446.265 446.563 443.989L446.587 438.048C452.224 440.309 460.931 439.834 466.866 439.117C469.027 438.859 470.795 437.553 471.738 435.777C472.071 436.401 472.304 437.089 472.414 437.825C472.935 441.363 470.433 444.642 466.866 445.073Z" fill="#00227B"/>
</g>
</g>
</g>
</g>
<path d="M457.77 447.153C453.555 447.153 449.31 446.705 446.005 445.373C441.997 443.757 441.867 437.439 443.041 433.679C444.196 429.978 446.155 429.984 446.943 430.157C450.87 431.025 457.543 431.292 465.734 430.91C467.691 430.819 469.598 431.452 471.109 432.693C472.618 433.933 473.607 435.677 473.893 437.606C474.207 439.722 473.663 441.823 472.361 443.522C471.061 445.219 469.174 446.294 467.048 446.55C464.272 446.885 461.03 447.153 457.77 447.153ZM446.566 433.126C446.014 433.771 445.133 436.436 445.462 439.321C445.556 440.145 445.907 442.116 447.128 442.609C451.24 444.266 458.187 444.615 466.689 443.59C468.006 443.431 469.176 442.765 469.981 441.714C470.789 440.659 471.127 439.355 470.932 438.042C470.563 435.556 468.389 433.771 465.875 433.888C459.997 434.162 451.924 434.247 446.566 433.126Z" fill="#00227B"/>
<path d="M448.744 427.522V447.358C448.744 451.038 445.72 454.051 442.025 454.051H405.347C401.657 454.051 398.632 451.038 398.632 447.358V427.522C398.632 423.841 401.657 420.834 405.347 420.834H442.025C444.2 420.834 446.142 421.878 447.374 423.485C448.232 424.608 448.744 426.008 448.744 427.522Z" fill="white"/>
<g opacity="0.35">
<g opacity="0.35">
<g opacity="0.35">
<g opacity="0.35">
<path opacity="0.35" d="M448.743 427.522V447.358C448.743 451.038 445.72 454.049 442.025 454.049H405.348C401.653 454.049 398.63 451.038 398.63 447.358V439.938C404.139 445.532 414.972 449.044 424.908 449.096C428.1 449.113 430.675 446.598 430.903 443.426C430.905 443.394 430.908 443.362 430.91 443.331C431.155 440.548 433.456 438.294 436.253 438.094C439.439 437.865 442.129 440.209 442.444 443.255C447.253 437.341 445.844 427.064 447.374 423.485C448.234 424.609 448.743 426.007 448.743 427.522Z" fill="#00227B"/>
</g>
</g>
</g>
</g>
<path d="M442.026 455.54H405.347C400.819 455.54 397.135 451.871 397.135 447.36V427.522C397.135 423.011 400.819 419.342 405.347 419.342H442.026C446.555 419.342 450.239 423.011 450.239 427.522V447.36C450.239 451.871 446.555 455.54 442.026 455.54ZM405.347 422.323C402.469 422.323 400.128 424.655 400.128 427.522V447.36C400.128 450.227 402.469 452.559 405.347 452.559H442.026C444.904 452.559 447.246 450.227 447.246 447.36V427.522C447.246 424.655 444.904 422.323 442.026 422.323H405.347Z" fill="#00227B"/>
<path d="M436.68 443.21C439.879 443.21 442.473 440.627 442.473 437.441C442.473 434.254 439.879 431.671 436.68 431.671C433.481 431.671 430.888 434.254 430.888 437.441C430.888 440.627 433.481 443.21 436.68 443.21Z" fill="#22A7F0"/>
<g opacity="0.7">
<g opacity="0.7">
<g opacity="0.7">
<g opacity="0.7">
<path opacity="0.7" d="M442.473 437.441C442.473 437.836 442.435 438.219 442.36 438.594C441.825 435.956 439.485 433.971 436.682 433.971C433.875 433.971 431.535 435.956 431 438.594C430.925 438.219 430.887 437.837 430.887 437.441C430.887 434.253 433.481 431.673 436.682 431.673C439.878 431.673 442.473 434.253 442.473 437.441Z" fill="white"/>
</g>
</g>
</g>
</g>
<g opacity="0.35">
<g opacity="0.35">
<g opacity="0.35">
<g opacity="0.35">
<path opacity="0.35" d="M442.471 437.44C442.471 440.625 439.879 443.207 436.681 443.207C433.482 443.207 430.89 440.625 430.89 437.44C430.89 436.703 431.029 436 431.287 435.353C432.122 437.504 434.223 439.028 436.681 439.028C439.14 439.028 441.24 437.504 442.075 435.353C442.332 436 442.471 436.702 442.471 437.44Z" fill="#00227B"/>
</g>
</g>
</g>
</g>
<path d="M436.681 444.327C432.868 444.327 429.766 441.238 429.766 437.441C429.766 433.643 432.868 430.554 436.681 430.554C440.493 430.554 443.595 433.643 443.595 437.441C443.595 441.238 440.493 444.327 436.681 444.327ZM436.681 432.79C434.106 432.79 432.011 434.876 432.011 437.441C432.011 440.005 434.106 442.091 436.681 442.091C439.255 442.091 441.35 440.005 441.35 437.441C441.35 434.876 439.255 432.79 436.681 432.79Z" fill="#00227B"/>
<path d="M420.268 455.168C419.647 455.168 419.145 454.667 419.145 454.05V440.463L411.811 434.963V420.833C411.811 420.215 412.313 419.715 412.933 419.715C413.552 419.715 414.055 420.216 414.055 420.833V433.847L421.39 439.347V454.05C421.39 454.667 420.887 455.168 420.268 455.168Z" fill="#00227B"/>
<path d="M424.406 464.73C430.894 464.73 437.133 462.332 442.006 458.065C448.756 452.155 460.119 445.107 472.662 449.628C477.694 451.441 481.124 454.767 483.464 458.447C489.49 444.541 502.13 443.707 507.602 451.589C507.602 451.589 498.405 495.29 495.408 496.263C491.114 497.656 480.796 496.19 480.796 496.19C480.796 496.19 444.902 491.351 424.406 491.351C403.909 491.351 368.015 496.19 368.015 496.19C368.015 496.19 357.698 497.655 353.404 496.263C350.407 495.29 341.21 451.589 341.21 451.589C346.68 443.706 359.322 444.541 365.348 458.447C367.687 454.766 371.117 451.441 376.15 449.628C388.692 445.107 400.055 452.155 406.805 458.065C411.678 462.331 417.917 464.73 424.406 464.73Z" fill="white"/>
<g opacity="0.35">
<path d="M507.603 451.587C507.603 451.587 498.405 495.29 495.408 496.263C491.116 497.657 480.796 496.192 480.796 496.192C480.796 496.192 444.904 491.351 424.405 491.351C403.911 491.351 368.015 496.192 368.015 496.192C368.015 496.192 357.698 497.657 353.407 496.263C350.41 495.29 341.212 451.587 341.212 451.587C342.114 450.29 343.206 449.228 344.434 448.423C347.383 461.237 351.566 477.967 353.407 478.564C357.699 479.953 368.015 478.489 368.015 478.489C368.015 478.489 403.911 468.806 424.405 468.806C444.904 468.806 480.796 478.489 480.796 478.489C480.796 478.489 491.116 479.953 495.408 478.564C497.249 477.967 501.432 461.237 504.381 448.423C505.609 449.229 506.701 450.291 507.603 451.587Z" fill="#00227B"/>
</g>
<path d="M358.938 498.35C356.687 498.35 354.488 498.182 352.941 497.68C351.886 497.338 350.999 496.173 349.335 491.009C348.361 487.986 347.191 483.776 345.861 478.497C343.465 468.993 341.13 458.333 340.237 454.192C339.77 452.023 340.483 449.78 342.1 448.34C345.204 445.572 349.363 444.507 353.512 445.417C356.127 445.99 358.671 447.35 360.869 449.349C362.69 451.005 364.273 453.073 365.592 455.519C368.271 452.115 371.642 449.667 375.642 448.226C380.175 446.592 384.917 446.267 389.739 447.261C393.631 448.064 397.59 449.729 401.503 452.21C402.2 452.653 402.405 453.574 401.962 454.269C401.518 454.964 400.593 455.168 399.895 454.726C391.841 449.619 384.024 448.376 376.661 451.03C372.509 452.527 369.128 455.29 366.614 459.245C366.317 459.713 365.784 459.977 365.232 459.935C364.679 459.891 364.195 459.547 363.975 459.039C361.457 453.228 357.409 449.325 352.868 448.33C349.671 447.629 346.474 448.443 344.097 450.563C343.279 451.292 342.922 452.443 343.165 453.568C344.007 457.477 346.216 467.563 348.516 476.778C349.781 481.843 350.901 485.964 351.847 489.025C353.172 493.312 353.864 494.569 354.11 494.92C357.492 495.864 365.097 495.102 367.806 494.717C367.809 494.716 367.812 494.716 367.816 494.716C368.175 494.667 404.045 489.862 424.407 489.862C444.769 489.862 480.638 494.667 480.998 494.716C481.001 494.716 481.005 494.716 481.009 494.717C483.718 495.102 491.323 495.864 494.704 494.92C494.946 494.576 495.619 493.354 496.899 489.243C497.823 486.278 498.917 482.283 500.151 477.367C502.351 468.603 504.46 459.067 505.521 454.163C505.869 452.556 505.264 450.909 503.981 449.966C501.532 448.168 498.496 447.631 495.434 448.455C491.047 449.636 487.285 453.395 484.839 459.04C484.62 459.547 484.136 459.892 483.582 459.935C483.028 459.979 482.497 459.713 482.2 459.246C479.686 455.291 476.307 452.527 472.154 451.031C464.726 448.354 456.842 449.64 448.719 454.855C448.024 455.3 447.098 455.101 446.65 454.409C446.203 453.717 446.402 452.794 447.098 452.348C451.035 449.821 455.018 448.119 458.938 447.291C463.807 446.262 468.596 446.577 473.173 448.227C477.173 449.668 480.545 452.117 483.223 455.521C486.035 450.316 490.029 446.821 494.653 445.577C498.557 444.525 502.604 445.25 505.758 447.566C507.988 449.204 509.043 452.039 508.449 454.791C507.325 459.986 505.097 470.052 502.804 479.088C501.505 484.212 500.363 488.295 499.411 491.221C497.787 496.214 496.915 497.345 495.873 497.682C491.321 499.159 481.113 497.744 480.593 497.67C480.03 497.594 444.508 492.844 424.408 492.844C404.303 492.844 368.785 497.594 368.222 497.67C367.876 497.717 363.311 498.35 358.938 498.35Z" fill="#00227B"/>
<path d="M492.742 496.263H495.408C498.538 496.263 501.376 494.435 502.65 491.588C506.64 482.688 513.916 463.131 507.101 451.197C506.903 450.849 506.691 450.513 506.466 450.192C506.466 450.192 499.923 444.265 495.223 452.65C490.833 460.483 481.617 493.976 492.742 496.263Z" fill="#AFAFB2"/>
<g opacity="0.7">
<g opacity="0.7">
<g opacity="0.7">
<g opacity="0.7">
<path opacity="0.7" d="M492.816 458.232C492.934 458.045 493.051 457.868 493.166 457.703C498.945 449.318 506.99 455.245 506.99 455.245C507.266 455.567 507.529 455.902 507.77 456.25C508.578 457.399 509.223 458.618 509.727 459.894C509.401 456.759 508.587 453.796 507.102 451.197C506.903 450.849 506.691 450.514 506.466 450.193C506.466 450.193 499.924 444.265 495.223 452.65C494.51 453.92 493.673 455.858 492.816 458.232Z" fill="white"/>
</g>
</g>
</g>
</g>
<path d="M509.692 460.788C509.624 460.788 509.556 460.782 509.487 460.77L493.133 458.051C492.461 457.94 492.007 457.307 492.119 456.636C492.231 455.967 492.868 455.514 493.539 455.626L509.892 458.345C510.564 458.456 511.019 459.09 510.907 459.76C510.806 460.362 510.284 460.788 509.692 460.788Z" fill="#00227B"/>
<path d="M509.587 469.588C509.532 469.588 509.477 469.585 509.421 469.576L490.291 467.015C489.616 466.925 489.142 466.306 489.232 465.633C489.323 464.96 489.944 464.488 490.62 464.578L509.75 467.14C510.426 467.23 510.9 467.849 510.809 468.522C510.726 469.14 510.196 469.588 509.587 469.588Z" fill="#00227B"/>
<path d="M507.9 478.207C507.85 478.207 507.8 478.204 507.749 478.198L488.329 475.831C487.653 475.748 487.172 475.135 487.254 474.462C487.337 473.788 487.951 473.308 488.629 473.391L508.048 475.758C508.725 475.841 509.206 476.454 509.124 477.127C509.047 477.751 508.515 478.207 507.9 478.207Z" fill="#00227B"/>
<path d="M504.82 487.607C504.783 487.607 504.746 487.606 504.708 487.602L487.346 486.042C486.667 485.981 486.167 485.383 486.228 484.707C486.289 484.031 486.889 483.532 487.568 483.593L504.93 485.154C505.609 485.214 506.11 485.813 506.048 486.489C505.99 487.127 505.451 487.607 504.82 487.607Z" fill="#00227B"/>
<g opacity="0.35">
<g opacity="0.35">
<g opacity="0.35">
<g opacity="0.35">
<path opacity="0.35" d="M492.742 496.263H495.407C498.537 496.263 501.375 494.434 502.649 491.588C503.681 489.281 504.936 486.263 506.109 482.845C504.509 485.49 501.257 487.167 497.687 487.167H494.51C489.988 486.387 488.286 481.97 488.219 476.181C486.69 485.953 487.11 495.105 492.742 496.263Z" fill="#00227B"/>
</g>
</g>
</g>
</g>
<path d="M495.408 497.492H492.743C492.659 497.492 492.576 497.484 492.493 497.467C490.338 497.023 488.71 495.632 487.653 493.33C485.161 487.903 486.372 478.449 487.827 471.474C489.606 462.949 492.353 455.25 494.146 452.05C495.795 449.108 497.872 447.415 500.319 447.017C504.073 446.407 507.167 449.165 507.297 449.282C507.365 449.344 507.426 449.413 507.479 449.488C507.725 449.839 507.959 450.21 508.176 450.589C511.291 456.044 511.951 463.505 510.141 472.764C508.668 480.292 505.868 487.428 503.778 492.088C502.308 495.371 499.023 497.492 495.408 497.492ZM492.877 495.033H495.408C498.049 495.033 500.45 493.485 501.523 491.088C503.56 486.544 506.288 479.595 507.717 472.295C509.412 463.63 508.844 456.735 506.029 451.804C505.876 451.536 505.712 451.273 505.542 451.023C505.08 450.647 502.979 449.068 500.703 449.446C499.042 449.722 497.561 451.001 496.302 453.249C494.641 456.211 491.954 463.78 490.245 471.974C488.294 481.325 488.17 488.547 489.898 492.308C490.599 493.835 491.574 494.728 492.877 495.033Z" fill="#00227B"/>
<path d="M356.071 496.263H353.406C350.276 496.263 347.438 494.435 346.164 491.588C342.173 482.688 334.897 463.131 341.712 451.197C341.911 450.849 342.123 450.513 342.348 450.192C342.348 450.192 348.89 444.265 353.591 452.65C357.981 460.483 367.196 493.976 356.071 496.263Z" fill="#AFAFB2"/>
<g opacity="0.7">
<g opacity="0.7">
<g opacity="0.7">
<g opacity="0.7">
<path opacity="0.7" d="M355.997 458.232C355.879 458.045 355.761 457.868 355.647 457.703C349.868 449.318 341.822 455.245 341.822 455.245C341.547 455.567 341.284 455.902 341.042 456.25C340.235 457.399 339.59 458.618 339.086 459.894C339.412 456.759 340.225 453.796 341.711 451.197C341.909 450.849 342.122 450.514 342.346 450.193C342.346 450.193 348.889 444.265 353.589 452.65C354.302 453.92 355.139 455.858 355.997 458.232Z" fill="white"/>
</g>
</g>
</g>
</g>
<path d="M339.121 460.788C338.529 460.788 338.006 460.362 337.905 459.761C337.793 459.092 338.247 458.458 338.92 458.346L355.273 455.627C355.945 455.515 356.581 455.967 356.693 456.637C356.805 457.307 356.351 457.94 355.678 458.052L339.325 460.772C339.257 460.783 339.189 460.788 339.121 460.788Z" fill="#00227B"/>
<path d="M339.225 469.588C338.616 469.588 338.086 469.14 338.003 468.523C337.913 467.85 338.386 467.231 339.062 467.141L358.193 464.579C358.869 464.488 359.489 464.96 359.581 465.633C359.671 466.306 359.197 466.925 358.522 467.015L339.391 469.577C339.335 469.585 339.28 469.588 339.225 469.588Z" fill="#00227B"/>
<path d="M340.913 478.207C340.298 478.207 339.766 477.751 339.69 477.127C339.606 476.454 340.088 475.841 340.765 475.758L360.185 473.39C360.861 473.309 361.476 473.787 361.559 474.462C361.642 475.135 361.161 475.748 360.484 475.831L341.064 478.198C341.013 478.205 340.962 478.207 340.913 478.207Z" fill="#00227B"/>
<path d="M343.993 487.607C343.361 487.607 342.823 487.127 342.765 486.489C342.704 485.813 343.205 485.215 343.883 485.154L361.245 483.593C361.925 483.533 362.524 484.031 362.586 484.707C362.646 485.383 362.146 485.98 361.467 486.042L344.106 487.602C344.068 487.605 344.03 487.607 343.993 487.607Z" fill="#00227B"/>
<g opacity="0.35">
<g opacity="0.35">
<g opacity="0.35">
<g opacity="0.35">
<path opacity="0.35" d="M356.071 496.263H353.405C350.275 496.263 347.437 494.434 346.163 491.588C345.131 489.281 343.876 486.263 342.703 482.845C344.303 485.49 347.555 487.167 351.125 487.167H354.302C358.824 486.387 360.526 481.97 360.593 476.181C362.122 485.953 361.702 495.105 356.071 496.263Z" fill="#00227B"/>
</g>
</g>
</g>
</g>
<path d="M356.071 497.492H353.405C349.791 497.492 346.505 495.371 345.036 492.088C342.947 487.429 340.146 480.293 338.673 472.765C336.863 463.506 337.523 456.045 340.638 450.589C340.855 450.21 341.089 449.84 341.334 449.489C341.387 449.413 341.448 449.345 341.516 449.283C341.646 449.165 344.741 446.408 348.494 447.018C350.941 447.416 353.018 449.109 354.667 452.051C356.461 455.251 359.207 462.95 360.986 471.475C362.441 478.45 363.652 487.904 361.16 493.331C360.103 495.633 358.475 497.024 356.32 497.467C356.238 497.484 356.154 497.492 356.071 497.492ZM343.27 451.024C343.1 451.274 342.937 451.536 342.784 451.804C339.968 456.735 339.4 463.629 341.096 472.296C342.524 479.596 345.251 486.544 347.289 491.088C348.363 493.486 350.763 495.034 353.404 495.034H355.936C357.238 494.729 358.214 493.836 358.915 492.308C360.642 488.547 360.519 481.325 358.569 471.974C356.859 463.78 354.172 456.211 352.511 453.249C351.252 451.002 349.771 449.722 348.111 449.446C345.838 449.069 343.738 450.643 343.27 451.024Z" fill="#00227B"/>
<path d="M386.162 495.141C385.987 495.141 385.809 495.1 385.643 495.013C385.093 494.727 384.881 494.051 385.169 493.503C389.856 484.583 389.925 474.551 385.375 463.688C381.942 455.494 377.027 449.887 376.977 449.831C376.568 449.368 376.612 448.662 377.077 448.253C377.542 447.845 378.251 447.888 378.661 448.351C378.871 448.588 383.839 454.246 387.42 462.763C389.533 467.789 390.711 472.763 390.923 477.546C391.19 483.56 389.923 489.277 387.157 494.54C386.957 494.923 386.566 495.141 386.162 495.141Z" fill="#00227B"/>
<path d="M463.106 495.141C462.701 495.141 462.311 494.923 462.11 494.541C459.345 489.278 458.078 483.561 458.345 477.547C458.557 472.763 459.735 467.79 461.848 462.764C465.429 454.246 470.397 448.588 470.607 448.352C471.018 447.889 471.727 447.845 472.192 448.254C472.657 448.662 472.701 449.368 472.29 449.831C472.241 449.887 467.326 455.494 463.893 463.688C459.343 474.552 459.412 484.583 464.099 493.503C464.386 494.051 464.174 494.726 463.625 495.013C463.459 495.1 463.281 495.141 463.106 495.141Z" fill="#00227B"/>
<g opacity="0.35">
<path d="M461.604 387.726C460.309 389.202 458.947 390.603 457.529 391.919C454.161 395.042 450.471 397.7 446.523 399.806C439.855 403.369 432.457 405.367 424.667 405.404C417.055 405.437 409.811 403.596 403.244 400.249C398.945 398.054 394.937 395.217 391.311 391.837C389.508 390.152 387.797 388.337 386.192 386.403C389.1 385.509 391.988 384.472 394.633 383.447C397.919 375.565 401.75 367.492 406.219 359.419H442.594C446.287 366.094 449.546 372.765 452.42 379.336C455.16 380.927 458.314 383.924 461.604 387.726Z" fill="#00227B"/>
</g>
<path d="M479.954 351.734C479.32 351.802 478.751 351.345 478.683 350.714L475.133 317.809C475.065 317.178 475.523 316.612 476.156 316.544C482.802 315.832 488.768 320.621 489.482 327.24L490.694 338.461C491.408 345.08 486.599 351.022 479.954 351.734Z" fill="white"/>
<path d="M479.828 352.024C479.501 352.024 479.186 351.914 478.929 351.707C478.629 351.467 478.442 351.125 478.401 350.745L474.851 317.839C474.81 317.459 474.92 317.085 475.161 316.788C475.402 316.491 475.745 316.304 476.127 316.263C482.919 315.536 489.036 320.447 489.766 327.211L490.976 338.432C491.33 341.708 490.381 344.926 488.305 347.491C486.229 350.057 483.274 351.664 479.984 352.016L479.954 351.735L479.984 352.016C479.932 352.021 479.88 352.024 479.828 352.024ZM477.459 316.757C477.039 316.757 476.615 316.779 476.188 316.825C475.957 316.849 475.749 316.963 475.604 317.142C475.458 317.322 475.392 317.548 475.416 317.778L478.966 350.683C478.991 350.913 479.105 351.12 479.286 351.265C479.467 351.41 479.693 351.476 479.924 351.452C483.063 351.116 485.882 349.583 487.863 347.135C489.844 344.687 490.749 341.617 490.412 338.491L489.202 327.27C488.55 321.243 483.414 316.757 477.459 316.757Z" fill="#00227B"/>
<g opacity="0.35">
<g opacity="0.35">
<g opacity="0.35">
<g opacity="0.35">
<path opacity="0.35" d="M490.126 333.199L490.695 338.462C491.409 345.078 486.6 351.022 479.954 351.736C479.321 351.805 478.752 351.344 478.684 350.714L477.737 341.967C477.957 342.346 478.388 342.579 478.853 342.533L479.637 342.447C484.887 341.886 488.995 338.055 490.126 333.199Z" fill="#00227B"/>
</g>
</g>
</g>
</g>
<path d="M479.826 353.317C479.204 353.317 478.605 353.108 478.114 352.713C477.545 352.257 477.188 351.606 477.11 350.883L473.56 317.978C473.482 317.254 473.692 316.543 474.15 315.976C474.608 315.408 475.261 315.054 475.988 314.976C483.49 314.173 490.251 319.599 491.057 327.072L492.267 338.293C492.658 341.913 491.61 345.468 489.316 348.303C487.022 351.138 483.757 352.913 480.122 353.302C480.024 353.312 479.925 353.317 479.826 353.317ZM479.787 350.166H479.786C479.786 350.166 479.786 350.166 479.787 350.166ZM476.756 318.074L480.212 350.112C482.834 349.726 485.179 348.392 486.853 346.324C488.616 344.145 489.421 341.413 489.121 338.63L487.911 327.409C487.306 321.807 482.35 317.701 476.756 318.074Z" fill="#00227B"/>
<path d="M367.109 328.215C367.742 328.147 368.311 328.604 368.379 329.235L371.929 362.14C371.997 362.771 371.539 363.337 370.906 363.405C364.26 364.116 358.294 359.327 357.58 352.709L356.37 341.487C355.654 334.869 360.463 328.927 367.109 328.215Z" fill="white"/>
<path d="M369.603 363.759C363.361 363.759 357.978 359.057 357.297 352.739L356.086 341.518C355.356 334.754 360.287 328.66 367.078 327.934L367.109 328.215L367.078 327.934C367.866 327.849 368.577 328.42 368.661 329.205L372.212 362.11C372.296 362.895 371.724 363.602 370.935 363.687C370.489 363.735 370.043 363.759 369.603 363.759ZM367.232 328.492C367.201 328.492 367.171 328.493 367.138 328.497C360.659 329.19 355.955 335.004 356.652 341.457L357.862 352.678C358.558 359.132 364.395 363.818 370.875 363.124C371.351 363.074 371.697 362.646 371.646 362.171L368.096 329.266C368.048 328.822 367.67 328.492 367.232 328.492Z" fill="#00227B"/>
<g opacity="0.35">
<g opacity="0.35">
<g opacity="0.35">
<g opacity="0.35">
<path opacity="0.35" d="M370.947 353.011L371.931 362.14C372.001 362.771 371.538 363.337 370.905 363.405C367.417 363.777 364.113 362.636 361.659 360.507C359.444 358.584 357.921 355.852 357.582 352.71L357.072 347.982C359.406 351.929 363.92 354.368 368.793 353.848L369.998 353.718C370.437 353.671 370.785 353.388 370.947 353.011Z" fill="#00227B"/>
</g>
</g>
</g>
</g>
<path d="M369.602 365.052C362.705 365.053 356.759 359.858 356.006 352.877L354.795 341.656C353.989 334.183 359.437 327.45 366.94 326.647C368.439 326.486 369.792 327.571 369.953 329.065L373.503 361.971C373.665 363.466 372.575 364.812 371.075 364.972C370.58 365.026 370.088 365.052 369.602 365.052ZM366.851 329.837C361.306 330.657 357.339 335.718 357.942 341.32L359.153 352.541C359.758 358.143 364.714 362.248 370.308 361.876L366.851 329.837Z" fill="#00227B"/>
<path d="M423.537 396.37C454.809 396.37 480.159 371.121 480.159 339.974C480.159 308.827 454.809 283.578 423.537 283.578C392.265 283.578 366.915 308.827 366.915 339.974C366.915 371.121 392.265 396.37 423.537 396.37Z" fill="white"/>
<path d="M423.482 396.654C416.54 396.654 409.758 395.415 403.292 392.96C396.416 390.351 390.187 386.485 384.775 381.471C379.364 376.457 375.045 370.547 371.935 363.905C368.717 357.028 366.945 349.664 366.667 342.018C366.39 334.371 367.625 326.899 370.338 319.809C372.957 312.961 376.839 306.756 381.873 301.367C386.906 295.977 392.842 291.674 399.511 288.577C406.416 285.371 413.809 283.606 421.486 283.33C429.163 283.054 436.665 284.284 443.784 286.986C450.66 289.595 456.889 293.461 462.3 298.475C467.711 303.489 472.031 309.399 475.14 316.041C478.359 322.918 480.131 330.282 480.408 337.928C480.686 345.575 479.451 353.047 476.738 360.137C474.118 366.985 470.237 373.19 465.202 378.579C460.168 383.969 454.234 388.271 447.565 391.368C440.661 394.574 433.267 396.339 425.59 396.615C424.885 396.641 424.182 396.654 423.482 396.654ZM423.564 283.859C422.879 283.859 422.196 283.872 421.506 283.896C390.462 285.012 366.116 311.076 367.236 341.996C367.778 356.975 374.145 370.847 385.162 381.056C395.67 390.793 409.21 396.087 423.486 396.087C424.179 396.087 424.872 396.075 425.568 396.05C440.606 395.51 454.534 389.169 464.784 378.195C475.034 367.221 480.38 352.929 479.838 337.951C478.744 307.717 453.697 283.859 423.564 283.859Z" fill="#00227B"/>
<g opacity="0.35">
<g opacity="0.35">
<g opacity="0.35">
<g opacity="0.35">
<path opacity="0.35" d="M479.299 330.158C479.751 332.694 480.029 335.291 480.125 337.941C481.248 369.067 456.829 395.21 425.578 396.335C394.327 397.454 368.08 373.132 366.95 342.007C366.917 341.112 366.906 340.216 366.916 339.331C371.724 366.63 396.125 386.904 424.719 385.877C455.071 384.784 478.975 360.094 479.299 330.158Z" fill="#00227B"/>
</g>
</g>
</g>
</g>
<path d="M423.482 397.948C416.381 397.948 409.444 396.679 402.83 394.169C395.798 391.5 389.425 387.546 383.892 382.418C378.358 377.29 373.939 371.244 370.759 364.451C367.467 357.417 365.654 349.884 365.371 342.064C365.088 334.243 366.351 326.6 369.126 319.348C371.806 312.344 375.776 305.997 380.925 300.485C386.073 294.973 392.141 290.572 398.963 287.405C406.025 284.126 413.588 282.321 421.44 282.039C429.292 281.757 436.965 283.015 444.247 285.779C451.279 288.448 457.651 292.402 463.185 297.53C468.719 302.658 473.137 308.704 476.317 315.497C479.61 322.531 481.422 330.064 481.706 337.884C481.989 345.705 480.726 353.348 477.95 360.6C475.271 367.604 471.301 373.951 466.152 379.463C461.003 384.975 454.934 389.375 448.113 392.543C441.05 395.822 433.488 397.627 425.636 397.909C424.917 397.935 424.198 397.948 423.482 397.948ZM423.564 285.154C422.895 285.154 422.228 285.166 421.554 285.19C391.225 286.28 367.44 311.742 368.535 341.951C369.065 356.584 375.285 370.136 386.048 380.11C396.314 389.623 409.541 394.795 423.489 394.795C424.166 394.795 424.844 394.783 425.523 394.758C440.215 394.231 453.821 388.035 463.836 377.315C473.851 366.595 479.074 352.632 478.543 337.998C477.472 308.46 453.003 285.154 423.564 285.154Z" fill="#00227B"/>
<path d="M479.996 339.395C480.563 350.416 477.496 360.832 471.789 369.611C467.51 376.193 449.148 388.267 425.78 389.669C404.113 390.968 383.798 380.463 378.866 374.351C372.287 366.198 368.17 356.149 367.603 345.128C366.103 315.962 390.64 302.587 421.679 301.004C452.716 299.42 478.496 310.229 479.996 339.395Z" fill="#3949AB"/>
<path d="M422.019 390.864C411.245 390.864 401.874 388.189 395.654 385.8C387.778 382.774 380.855 378.547 378.017 375.029C371.052 366.399 367.075 356.077 366.515 345.182C366.143 337.953 367.34 331.393 370.071 325.685C372.642 320.312 376.585 315.658 381.793 311.849C391.308 304.89 405.08 300.765 421.621 299.922C438.162 299.079 452.285 301.78 462.463 307.734C468.034 310.993 472.435 315.222 475.544 320.306C478.846 325.706 480.71 332.11 481.081 339.34C481.641 350.234 478.743 360.906 472.7 370.2C470.19 374.062 463.954 378.795 456.429 382.551C449.818 385.851 439.145 389.953 425.844 390.75C424.552 390.827 423.275 390.864 422.019 390.864ZM427.462 301.937C425.588 301.937 423.679 301.986 421.733 302.085C405.617 302.907 392.252 306.888 383.081 313.595C372.842 321.084 367.999 331.675 368.688 345.072C369.224 355.509 373.037 365.399 379.713 373.672C381.699 376.134 387.27 380.258 396.438 383.779C403.182 386.369 413.735 389.306 425.714 388.588C438.647 387.812 449.026 383.823 455.455 380.614C464.07 376.313 469.147 371.682 470.876 369.023C476.668 360.113 479.447 349.887 478.911 339.45C478.222 326.053 472.318 316.011 461.363 309.602C452.737 304.556 441.099 301.937 427.462 301.937Z" fill="#00227B"/>
<g opacity="0.5">
<g opacity="0.5">
<g opacity="0.5">
<g opacity="0.5">
<path d="M468.723 337.286C469.43 331.82 466.778 326.974 462.801 326.464C458.824 325.954 455.027 329.973 454.32 335.439C453.614 340.906 456.265 345.751 460.242 346.261C464.219 346.771 468.016 342.753 468.723 337.286Z" fill="white"/>
</g>
</g>
</g>
</g>
<g opacity="0.5">
<g opacity="0.5">
<g opacity="0.5">
<g opacity="0.5">
<path d="M457.468 357.607C458.138 355.166 456.976 352.724 454.874 352.152C452.771 351.58 450.524 353.094 449.854 355.534C449.185 357.975 450.346 360.417 452.449 360.989C454.552 361.562 456.799 360.047 457.468 357.607Z" fill="white"/>
</g>
</g>
</g>
</g>
<g opacity="0.35">
<path d="M467.667 312.743C474.873 318.922 479.391 327.68 479.995 339.393C480.562 350.417 477.494 360.832 471.791 369.612C467.51 376.194 449.147 388.267 425.779 389.671C417.528 390.169 409.476 388.951 402.39 386.913C431.077 384.578 453.439 369.767 458.746 361.604C465.991 350.461 469.882 337.24 469.16 323.255C468.971 319.516 468.458 316.016 467.667 312.743Z" fill="#00227B"/>
</g>
<path d="M370.555 321.558C370.236 321.558 369.915 321.459 369.64 321.253C368.994 320.768 368.845 319.869 369.285 319.206C371.635 315.361 374.635 311.847 378.203 308.762C381.676 305.76 385.716 303.138 390.209 300.971C394.609 298.849 399.471 297.15 404.661 295.919C409.804 294.699 415.295 293.934 420.981 293.644C426.575 293.359 432.055 293.551 437.27 294.215C442.534 294.885 447.538 296.038 452.143 297.641C456.855 299.28 461.166 301.398 464.957 303.934C468.855 306.542 472.226 309.608 474.978 313.049C475.459 313.579 475.508 314.391 475.058 314.981C474.55 315.649 473.595 315.778 472.925 315.272L472.765 315.154L472.645 315.001C462.452 302.204 443.677 295.524 421.137 296.674C398.472 297.83 380.512 306.631 371.863 320.82L371.824 320.885L371.772 320.953C371.474 321.349 371.018 321.558 370.555 321.558Z" fill="#00227B"/>
<g opacity="0.5">
<g opacity="0.5">
<g opacity="0.5">
<g opacity="0.5">
<path d="M381.115 361.834C381.115 361.834 370.566 333.525 385.545 321.264C400.525 309.004 422.926 307.909 422.476 309.366C422.476 309.366 397.986 316.61 389.287 336.63C382.579 352.068 381.115 361.834 381.115 361.834Z" fill="white"/>
</g>
</g>
</g>
</g>
<path d="M474.853 499.508H374.43C371.179 499.508 368.542 496.882 368.542 493.644C368.542 491.778 370.061 490.265 371.935 490.265H477.349C479.222 490.265 480.741 491.778 480.741 493.644C480.741 496.883 478.105 499.508 474.853 499.508Z" fill="#E6E9FA"/>
<g opacity="0.3">
<g opacity="0.3">
<g opacity="0.3">
<g opacity="0.3">
<path opacity="0.3" d="M480.739 493.645C480.739 494.285 480.635 494.901 480.444 495.479C479.917 494.297 478.73 493.477 477.349 493.477H371.936C371 493.477 370.151 493.854 369.537 494.469C369.245 494.76 369.006 495.099 368.838 495.479C368.647 494.902 368.542 494.287 368.542 493.645C368.542 492.714 368.92 491.868 369.538 491.257C370.152 490.642 371.001 490.265 371.936 490.265H477.349C479.224 490.264 480.739 491.777 480.739 493.645Z" fill="white"/>
</g>
</g>
</g>
</g>
<g opacity="0.35">
<g opacity="0.35">
<g opacity="0.35">
<g opacity="0.35">
<path opacity="0.35" d="M480.739 493.645C480.739 495.262 480.081 496.731 479.014 497.789C477.951 498.851 476.476 499.507 474.853 499.507H374.432C371.18 499.507 368.542 496.883 368.542 493.645C368.542 493.022 368.71 492.437 369.009 491.934C369.899 494.032 371.995 495.508 374.431 495.508H474.852C476.476 495.508 477.951 494.853 479.013 493.79C479.544 493.26 479.975 492.631 480.27 491.934C480.571 492.437 480.739 493.022 480.739 493.645Z" fill="#00227B"/>
</g>
</g>
</g>
</g>
<path d="M474.854 501H374.431C370.359 501 367.046 497.7 367.046 493.645C367.046 490.96 369.24 488.775 371.935 488.775H477.349C480.044 488.775 482.238 490.96 482.238 493.645C482.238 497.699 478.925 501 474.854 501ZM371.934 491.757C370.89 491.757 370.039 492.603 370.039 493.645C370.039 496.056 372.008 498.018 374.43 498.018H474.854C477.275 498.018 479.245 496.056 479.245 493.645C479.245 492.604 478.395 491.757 477.349 491.757H371.934Z" fill="#00227B"/>
<path d="M486.603 424.244L476.781 490.264H372.505L372.149 487.875L362.678 424.244C362.367 422.154 363.995 420.279 366.113 420.279H483.167C485.29 420.279 486.913 422.154 486.603 424.244Z" fill="#FF66AC"/>
<path d="M486.603 424.244L476.781 490.264H372.505L372.149 487.875L362.678 424.244C362.367 422.154 363.995 420.279 366.113 420.279H483.167C485.29 420.279 486.913 422.154 486.603 424.244Z" fill="#E6E9FA"/>
<g opacity="0.5">
<g opacity="0.5">
<g opacity="0.5">
<g opacity="0.5">
<path opacity="0.5" d="M366.38 428.343C366.07 426.252 367.698 424.377 369.816 424.377H486.583L486.603 424.245C486.913 422.155 485.29 420.28 483.168 420.28H366.114C363.996 420.28 362.369 422.155 362.679 424.245L372.15 487.876L372.505 490.265H375.598L366.38 428.343Z" fill="white"/>
</g>
</g>
</g>
</g>
<g opacity="0.35">
<g opacity="0.35">
<g opacity="0.35">
<g opacity="0.35">
<path opacity="0.35" d="M479.877 420.279H471.657C474.774 431.651 473.055 457.332 452.948 470.753C427.707 487.602 382.218 487.495 372.561 487.875L372.916 490.264H473.49L483.312 424.244C483.622 422.154 481.999 420.279 479.877 420.279Z" fill="#00227B"/>
</g>
</g>
</g>
</g>
<path d="M478.07 491.757H371.214L361.2 424.462C360.987 423.037 361.408 421.595 362.352 420.504C363.297 419.413 364.668 418.788 366.114 418.788H483.17C484.616 418.788 485.987 419.413 486.932 420.504C487.876 421.595 488.297 423.037 488.084 424.462L478.07 491.757ZM373.796 488.775H475.488L485.123 424.025C485.209 423.45 485.046 422.891 484.665 422.451C484.284 422.011 483.753 421.769 483.17 421.769H366.114C365.531 421.769 365 422.012 364.619 422.451C364.238 422.891 364.075 423.45 364.161 424.025L373.796 488.775Z" fill="#00227B"/>
<g opacity="0.3">
<g opacity="0.3">
<g opacity="0.3">
<g opacity="0.3">
<path opacity="0.3" d="M380.805 474.839C376.849 466.155 373.969 451.33 374.618 442.605C375.267 433.88 380.348 436.55 381.923 447.726C386.113 477.469 382.571 478.717 380.805 474.839Z" fill="white"/>
</g>
</g>
</g>
</g>
<g opacity="0.9" clip-path="url(#clip1_5749_61744)">
<path d="M433.525 445H413.001V450.349H428.198C428.296 450.347 428.394 450.364 428.486 450.4C428.577 450.436 428.661 450.49 428.732 450.558C428.803 450.626 428.859 450.708 428.899 450.798C428.938 450.888 428.959 450.985 428.961 451.083V451.18C428.961 459.721 421.813 466.649 413.001 466.649V471.997H415.111C419.789 471.638 424.221 469.76 427.731 466.649C428.157 466.273 428.569 465.875 428.968 465.454C432.584 461.692 434.599 456.676 434.59 451.461V446.037C434.588 445.899 434.559 445.763 434.505 445.636C434.45 445.509 434.371 445.394 434.272 445.298C434.174 445.202 434.057 445.126 433.928 445.075C433.8 445.024 433.663 444.998 433.525 445ZM430.088 456.151V450.019C430.085 449.82 430.002 449.63 429.859 449.492C429.717 449.353 429.525 449.276 429.325 449.278H422.741V448.241H430.418C430.516 448.239 430.614 448.257 430.706 448.293C430.797 448.328 430.881 448.382 430.952 448.45C431.023 448.519 431.079 448.6 431.119 448.69C431.158 448.78 431.179 448.877 431.181 448.976V456.151H430.088ZM432.274 456.151V447.884C432.272 447.692 432.197 447.509 432.064 447.371C431.931 447.233 431.751 447.151 431.559 447.142H422.741V446.099H432.604C432.703 446.097 432.801 446.115 432.893 446.151C432.985 446.187 433.069 446.242 433.14 446.311C433.211 446.379 433.268 446.462 433.306 446.553C433.345 446.644 433.366 446.741 433.367 446.84V456.151H432.274Z" fill="#1C1C93"/>
<path d="M431.999 471.915C433.483 471.915 434.686 470.713 434.686 469.23C434.686 467.747 433.483 466.545 431.999 466.545C430.515 466.545 429.312 467.747 429.312 469.23C429.312 470.713 430.515 471.915 431.999 471.915Z" fill="#1C1C93"/>
</g>
<path d="M486.086 427.728C486.086 427.728 478.004 423.908 470.415 427.334C463.148 430.615 458.006 453.975 467.422 459.893C473.233 463.545 477.189 460.319 480.477 461.266C485.353 462.671 495.358 438.618 486.086 427.728Z" fill="white"/>
<g opacity="0.35">
<path d="M489.732 442.93C488.774 452.721 483.584 462.161 480.478 461.266C477.189 460.32 473.234 463.547 467.423 459.895C462.925 457.066 461.75 450.261 462.543 443.559C463.078 447.469 464.593 450.819 467.423 452.597C473.234 456.245 477.103 454.55 480.478 453.969C484.65 453.249 488.052 448.71 489.732 442.93Z" fill="#00227B"/>
</g>
<path d="M473.381 463.17C471.42 463.17 469.151 462.743 466.623 461.154C464.359 459.731 462.724 457.429 461.764 454.312C460.958 451.696 460.657 448.508 460.892 445.094C461.171 441.05 462.17 436.901 463.703 433.411C464.874 430.746 466.883 427.291 469.796 425.976C477.924 422.307 486.371 426.212 486.726 426.38L487.017 426.518L487.225 426.763C491.469 431.747 491.714 438.633 491.172 443.531C490.562 449.05 488.606 454.904 486.068 458.81C483.526 462.721 481.397 463.084 480.059 462.698C479.191 462.449 478.094 462.623 476.824 462.825C475.82 462.986 474.667 463.17 473.381 463.17ZM477.333 427.394C475.058 427.394 472.949 427.827 471.034 428.693C469.458 429.404 467.785 431.56 466.447 434.608C465.068 437.745 464.132 441.641 463.88 445.299C463.434 451.758 465.016 456.619 468.221 458.633C471.452 460.664 473.944 460.266 476.353 459.882C477.91 459.634 479.381 459.399 480.893 459.834C481.066 459.865 482.312 459.386 484.069 456.355C488.165 449.287 490.763 435.939 485.159 428.951C484.524 428.688 482.889 428.069 480.75 427.699C479.574 427.495 478.433 427.394 477.333 427.394Z" fill="#00227B"/>
<path d="M308.812 560.867L304.336 578H301.266L298.406 567.734C298.336 567.484 298.258 567.188 298.172 566.844C298.086 566.5 298 566.148 297.914 565.789C297.836 565.43 297.766 565.102 297.703 564.805C297.648 564.5 297.609 564.266 297.586 564.102C297.57 564.266 297.535 564.496 297.48 564.793C297.426 565.09 297.359 565.418 297.281 565.777C297.211 566.129 297.133 566.48 297.047 566.832C296.961 567.176 296.883 567.48 296.812 567.746L294 578H290.941L286.477 560.867H289.301L291.773 570.91C291.852 571.23 291.93 571.578 292.008 571.953C292.094 572.32 292.172 572.691 292.242 573.066C292.32 573.441 292.391 573.809 292.453 574.168C292.516 574.52 292.566 574.84 292.605 575.129C292.645 574.832 292.695 574.504 292.758 574.145C292.82 573.777 292.887 573.406 292.957 573.031C293.035 572.648 293.113 572.281 293.191 571.93C293.277 571.578 293.363 571.262 293.449 570.98L296.238 560.867H298.98L301.828 571.016C301.914 571.305 301.996 571.629 302.074 571.988C302.16 572.348 302.242 572.715 302.32 573.09C302.398 573.465 302.469 573.828 302.531 574.18C302.594 574.531 302.645 574.848 302.684 575.129C302.738 574.746 302.809 574.309 302.895 573.816C302.98 573.324 303.078 572.824 303.188 572.316C303.297 571.809 303.406 571.34 303.516 570.91L305.977 560.867H308.812ZM316.125 564.781C317.281 564.781 318.273 565.02 319.102 565.496C319.93 565.973 320.566 566.648 321.012 567.523C321.457 568.398 321.68 569.445 321.68 570.664V572.141H313.02C313.051 573.398 313.387 574.367 314.027 575.047C314.676 575.727 315.582 576.066 316.746 576.066C317.574 576.066 318.316 575.988 318.973 575.832C319.637 575.668 320.32 575.43 321.023 575.117V577.355C320.375 577.66 319.715 577.883 319.043 578.023C318.371 578.164 317.566 578.234 316.629 578.234C315.355 578.234 314.234 577.988 313.266 577.496C312.305 576.996 311.551 576.254 311.004 575.27C310.465 574.285 310.195 573.062 310.195 571.602C310.195 570.148 310.441 568.914 310.934 567.898C311.426 566.883 312.117 566.109 313.008 565.578C313.898 565.047 314.938 564.781 316.125 564.781ZM316.125 566.855C315.258 566.855 314.555 567.137 314.016 567.699C313.484 568.262 313.172 569.086 313.078 570.172H318.984C318.977 569.523 318.867 568.949 318.656 568.449C318.453 567.949 318.141 567.559 317.719 567.277C317.305 566.996 316.773 566.855 316.125 566.855ZM327.551 578H324.785V559.766H327.551V578ZM336.715 578.234C335.488 578.234 334.426 577.996 333.527 577.52C332.629 577.043 331.938 576.312 331.453 575.328C330.969 574.344 330.727 573.094 330.727 571.578C330.727 570 330.992 568.711 331.523 567.711C332.055 566.711 332.789 565.973 333.727 565.496C334.672 565.02 335.754 564.781 336.973 564.781C337.746 564.781 338.445 564.859 339.07 565.016C339.703 565.164 340.238 565.348 340.676 565.566L339.855 567.77C339.379 567.574 338.891 567.41 338.391 567.277C337.891 567.145 337.41 567.078 336.949 567.078C336.191 567.078 335.559 567.246 335.051 567.582C334.551 567.918 334.176 568.418 333.926 569.082C333.684 569.746 333.562 570.57 333.562 571.555C333.562 572.508 333.688 573.312 333.938 573.969C334.188 574.617 334.559 575.109 335.051 575.445C335.543 575.773 336.148 575.938 336.867 575.938C337.578 575.938 338.215 575.852 338.777 575.68C339.34 575.508 339.871 575.285 340.371 575.012V577.402C339.879 577.684 339.352 577.891 338.789 578.023C338.227 578.164 337.535 578.234 336.715 578.234ZM354.902 571.484C354.902 572.562 354.762 573.52 354.48 574.355C354.199 575.191 353.789 575.898 353.25 576.477C352.711 577.047 352.062 577.484 351.305 577.789C350.547 578.086 349.691 578.234 348.738 578.234C347.848 578.234 347.031 578.086 346.289 577.789C345.547 577.484 344.902 577.047 344.355 576.477C343.816 575.898 343.398 575.191 343.102 574.355C342.805 573.52 342.656 572.562 342.656 571.484C342.656 570.055 342.902 568.844 343.395 567.852C343.895 566.852 344.605 566.09 345.527 565.566C346.449 565.043 347.547 564.781 348.82 564.781C350.016 564.781 351.07 565.043 351.984 565.566C352.898 566.09 353.613 566.852 354.129 567.852C354.645 568.852 354.902 570.062 354.902 571.484ZM345.492 571.484C345.492 572.43 345.605 573.238 345.832 573.91C346.066 574.582 346.426 575.098 346.91 575.457C347.395 575.809 348.02 575.984 348.785 575.984C349.551 575.984 350.176 575.809 350.66 575.457C351.145 575.098 351.5 574.582 351.727 573.91C351.953 573.238 352.066 572.43 352.066 571.484C352.066 570.539 351.953 569.738 351.727 569.082C351.5 568.418 351.145 567.914 350.66 567.57C350.176 567.219 349.547 567.043 348.773 567.043C347.633 567.043 346.801 567.426 346.277 568.191C345.754 568.957 345.492 570.055 345.492 571.484ZM372.727 564.781C374.18 564.781 375.273 565.156 376.008 565.906C376.75 566.656 377.121 567.859 377.121 569.516V578H374.367V570.008C374.367 569.023 374.176 568.281 373.793 567.781C373.41 567.281 372.828 567.031 372.047 567.031C370.953 567.031 370.164 567.383 369.68 568.086C369.203 568.781 368.965 569.793 368.965 571.121V578H366.211V570.008C366.211 569.352 366.125 568.805 365.953 568.367C365.789 567.922 365.535 567.59 365.191 567.371C364.848 567.145 364.414 567.031 363.891 567.031C363.133 567.031 362.527 567.203 362.074 567.547C361.629 567.891 361.309 568.398 361.113 569.07C360.918 569.734 360.82 570.551 360.82 571.52V578H358.066V565.027H360.211L360.598 566.773H360.75C361.016 566.32 361.344 565.949 361.734 565.66C362.133 565.363 362.574 565.145 363.059 565.004C363.543 564.855 364.047 564.781 364.57 564.781C365.539 564.781 366.355 564.953 367.02 565.297C367.684 565.633 368.18 566.148 368.508 566.844H368.719C369.125 566.141 369.691 565.621 370.418 565.285C371.145 564.949 371.914 564.781 372.727 564.781ZM386.133 564.781C387.289 564.781 388.281 565.02 389.109 565.496C389.938 565.973 390.574 566.648 391.02 567.523C391.465 568.398 391.688 569.445 391.688 570.664V572.141H383.027C383.059 573.398 383.395 574.367 384.035 575.047C384.684 575.727 385.59 576.066 386.754 576.066C387.582 576.066 388.324 575.988 388.98 575.832C389.645 575.668 390.328 575.43 391.031 575.117V577.355C390.383 577.66 389.723 577.883 389.051 578.023C388.379 578.164 387.574 578.234 386.637 578.234C385.363 578.234 384.242 577.988 383.273 577.496C382.312 576.996 381.559 576.254 381.012 575.27C380.473 574.285 380.203 573.062 380.203 571.602C380.203 570.148 380.449 568.914 380.941 567.898C381.434 566.883 382.125 566.109 383.016 565.578C383.906 565.047 384.945 564.781 386.133 564.781ZM386.133 566.855C385.266 566.855 384.562 567.137 384.023 567.699C383.492 568.262 383.18 569.086 383.086 570.172H388.992C388.984 569.523 388.875 568.949 388.664 568.449C388.461 567.949 388.148 567.559 387.727 567.277C387.312 566.996 386.781 566.855 386.133 566.855ZM405.855 576.008C406.215 576.008 406.57 575.977 406.922 575.914C407.273 575.844 407.594 575.762 407.883 575.668V577.754C407.578 577.887 407.184 578 406.699 578.094C406.215 578.188 405.711 578.234 405.188 578.234C404.453 578.234 403.793 578.113 403.207 577.871C402.621 577.621 402.156 577.195 401.812 576.594C401.469 575.992 401.297 575.16 401.297 574.098V567.125H399.527V565.895L401.426 564.922L402.328 562.145H404.062V565.027H407.777V567.125H404.062V574.062C404.062 574.719 404.227 575.207 404.555 575.527C404.883 575.848 405.316 576.008 405.855 576.008ZM422.004 571.484C422.004 572.562 421.863 573.52 421.582 574.355C421.301 575.191 420.891 575.898 420.352 576.477C419.812 577.047 419.164 577.484 418.406 577.789C417.648 578.086 416.793 578.234 415.84 578.234C414.949 578.234 414.133 578.086 413.391 577.789C412.648 577.484 412.004 577.047 411.457 576.477C410.918 575.898 410.5 575.191 410.203 574.355C409.906 573.52 409.758 572.562 409.758 571.484C409.758 570.055 410.004 568.844 410.496 567.852C410.996 566.852 411.707 566.09 412.629 565.566C413.551 565.043 414.648 564.781 415.922 564.781C417.117 564.781 418.172 565.043 419.086 565.566C420 566.09 420.715 566.852 421.23 567.852C421.746 568.852 422.004 570.062 422.004 571.484ZM412.594 571.484C412.594 572.43 412.707 573.238 412.934 573.91C413.168 574.582 413.527 575.098 414.012 575.457C414.496 575.809 415.121 575.984 415.887 575.984C416.652 575.984 417.277 575.809 417.762 575.457C418.246 575.098 418.602 574.582 418.828 573.91C419.055 573.238 419.168 572.43 419.168 571.484C419.168 570.539 419.055 569.738 418.828 569.082C418.602 568.418 418.246 567.914 417.762 567.57C417.277 567.219 416.648 567.043 415.875 567.043C414.734 567.043 413.902 567.426 413.379 568.191C412.855 568.957 412.594 570.055 412.594 571.484ZM429.445 565.027H432.445L435.105 572.434C435.223 572.77 435.328 573.102 435.422 573.43C435.523 573.75 435.609 574.066 435.68 574.379C435.758 574.691 435.82 575.004 435.867 575.316H435.938C436.016 574.91 436.125 574.457 436.266 573.957C436.414 573.449 436.578 572.941 436.758 572.434L439.312 565.027H442.277L436.711 579.781C436.391 580.625 435.996 581.344 435.527 581.938C435.066 582.539 434.52 582.992 433.887 583.297C433.254 583.609 432.531 583.766 431.719 583.766C431.328 583.766 430.988 583.742 430.699 583.695C430.41 583.656 430.164 583.613 429.961 583.566V581.363C430.125 581.402 430.332 581.438 430.582 581.469C430.832 581.5 431.09 581.516 431.355 581.516C431.848 581.516 432.273 581.418 432.633 581.223C432.992 581.027 433.297 580.75 433.547 580.391C433.797 580.039 434.004 579.637 434.168 579.184L434.625 577.965L429.445 565.027ZM455.73 571.484C455.73 572.562 455.59 573.52 455.309 574.355C455.027 575.191 454.617 575.898 454.078 576.477C453.539 577.047 452.891 577.484 452.133 577.789C451.375 578.086 450.52 578.234 449.566 578.234C448.676 578.234 447.859 578.086 447.117 577.789C446.375 577.484 445.73 577.047 445.184 576.477C444.645 575.898 444.227 575.191 443.93 574.355C443.633 573.52 443.484 572.562 443.484 571.484C443.484 570.055 443.73 568.844 444.223 567.852C444.723 566.852 445.434 566.09 446.355 565.566C447.277 565.043 448.375 564.781 449.648 564.781C450.844 564.781 451.898 565.043 452.812 565.566C453.727 566.09 454.441 566.852 454.957 567.852C455.473 568.852 455.73 570.062 455.73 571.484ZM446.32 571.484C446.32 572.43 446.434 573.238 446.66 573.91C446.895 574.582 447.254 575.098 447.738 575.457C448.223 575.809 448.848 575.984 449.613 575.984C450.379 575.984 451.004 575.809 451.488 575.457C451.973 575.098 452.328 574.582 452.555 573.91C452.781 573.238 452.895 572.43 452.895 571.484C452.895 570.539 452.781 569.738 452.555 569.082C452.328 568.418 451.973 567.914 451.488 567.57C451.004 567.219 450.375 567.043 449.602 567.043C448.461 567.043 447.629 567.426 447.105 568.191C446.582 568.957 446.32 570.055 446.32 571.484ZM470.203 565.027V578H468.035L467.66 576.254H467.508C467.234 576.699 466.887 577.07 466.465 577.367C466.043 577.656 465.574 577.871 465.059 578.012C464.543 578.16 464 578.234 463.43 578.234C462.453 578.234 461.617 578.07 460.922 577.742C460.234 577.406 459.707 576.891 459.34 576.195C458.973 575.5 458.789 574.602 458.789 573.5V565.027H461.555V572.984C461.555 573.992 461.758 574.746 462.164 575.246C462.578 575.746 463.219 575.996 464.086 575.996C464.922 575.996 465.586 575.824 466.078 575.48C466.57 575.137 466.918 574.629 467.121 573.957C467.332 573.285 467.438 572.461 467.438 571.484V565.027H470.203ZM480.727 564.781C480.945 564.781 481.184 564.793 481.441 564.816C481.699 564.84 481.922 564.871 482.109 564.91L481.852 567.488C481.688 567.441 481.484 567.406 481.242 567.383C481.008 567.359 480.797 567.348 480.609 567.348C480.117 567.348 479.648 567.43 479.203 567.594C478.758 567.75 478.363 567.992 478.02 568.32C477.676 568.641 477.406 569.043 477.211 569.527C477.016 570.012 476.918 570.574 476.918 571.215V578H474.152V565.027H476.309L476.684 567.312H476.812C477.07 566.852 477.391 566.43 477.773 566.047C478.156 565.664 478.594 565.359 479.086 565.133C479.586 564.898 480.133 564.781 480.727 564.781ZM494.449 583.766C492.691 583.766 491.344 583.449 490.406 582.816C489.469 582.184 489 581.297 489 580.156C489 579.359 489.25 578.684 489.75 578.129C490.25 577.582 490.965 577.203 491.895 576.992C491.543 576.836 491.238 576.594 490.98 576.266C490.73 575.93 490.605 575.559 490.605 575.152C490.605 574.668 490.742 574.254 491.016 573.91C491.289 573.566 491.699 573.234 492.246 572.914C491.566 572.625 491.02 572.156 490.605 571.508C490.199 570.852 489.996 570.082 489.996 569.199C489.996 568.262 490.195 567.465 490.594 566.809C490.992 566.145 491.574 565.641 492.34 565.297C493.105 564.945 494.031 564.77 495.117 564.77C495.352 564.77 495.605 564.785 495.879 564.816C496.16 564.84 496.418 564.871 496.652 564.91C496.895 564.941 497.078 564.977 497.203 565.016H501.691V566.551L499.488 566.961C499.699 567.258 499.867 567.598 499.992 567.98C500.117 568.355 500.18 568.766 500.18 569.211C500.18 570.555 499.715 571.613 498.785 572.387C497.863 573.152 496.59 573.535 494.965 573.535C494.574 573.52 494.195 573.488 493.828 573.441C493.547 573.613 493.332 573.805 493.184 574.016C493.035 574.219 492.961 574.449 492.961 574.707C492.961 574.918 493.035 575.09 493.184 575.223C493.332 575.348 493.551 575.441 493.84 575.504C494.137 575.566 494.496 575.598 494.918 575.598H497.156C498.578 575.598 499.664 575.898 500.414 576.5C501.164 577.102 501.539 577.984 501.539 579.148C501.539 580.625 500.93 581.762 499.711 582.559C498.492 583.363 496.738 583.766 494.449 583.766ZM494.555 581.832C495.516 581.832 496.324 581.738 496.98 581.551C497.637 581.363 498.133 581.094 498.469 580.742C498.805 580.398 498.973 579.988 498.973 579.512C498.973 579.09 498.867 578.766 498.656 578.539C498.445 578.312 498.129 578.156 497.707 578.07C497.285 577.984 496.762 577.941 496.137 577.941H494.098C493.59 577.941 493.141 578.02 492.75 578.176C492.359 578.34 492.055 578.574 491.836 578.879C491.625 579.184 491.52 579.551 491.52 579.98C491.52 580.574 491.781 581.031 492.305 581.352C492.836 581.672 493.586 581.832 494.555 581.832ZM495.094 571.73C495.898 571.73 496.496 571.512 496.887 571.074C497.277 570.629 497.473 570.004 497.473 569.199C497.473 568.324 497.27 567.668 496.863 567.23C496.465 566.793 495.871 566.574 495.082 566.574C494.309 566.574 493.719 566.797 493.312 567.242C492.914 567.688 492.715 568.348 492.715 569.223C492.715 570.012 492.914 570.629 493.312 571.074C493.719 571.512 494.312 571.73 495.094 571.73ZM509.145 564.781C510.785 564.781 512.023 565.145 512.859 565.871C513.703 566.598 514.125 567.73 514.125 569.27V578H512.168L511.641 576.16H511.547C511.18 576.629 510.801 577.016 510.41 577.32C510.02 577.625 509.566 577.852 509.051 578C508.543 578.156 507.922 578.234 507.188 578.234C506.414 578.234 505.723 578.094 505.113 577.812C504.504 577.523 504.023 577.086 503.672 576.5C503.32 575.914 503.145 575.172 503.145 574.273C503.145 572.938 503.641 571.934 504.633 571.262C505.633 570.59 507.141 570.219 509.156 570.148L511.406 570.066V569.387C511.406 568.488 511.195 567.848 510.773 567.465C510.359 567.082 509.773 566.891 509.016 566.891C508.367 566.891 507.738 566.984 507.129 567.172C506.52 567.359 505.926 567.59 505.348 567.863L504.457 565.918C505.09 565.582 505.809 565.309 506.613 565.098C507.426 564.887 508.27 564.781 509.145 564.781ZM511.395 571.801L509.719 571.859C508.344 571.906 507.379 572.141 506.824 572.562C506.27 572.984 505.992 573.562 505.992 574.297C505.992 574.938 506.184 575.406 506.566 575.703C506.949 575.992 507.453 576.137 508.078 576.137C509.031 576.137 509.82 575.867 510.445 575.328C511.078 574.781 511.395 573.98 511.395 572.926V571.801ZM520.746 578H517.98V559.766H520.746V578ZM529.77 564.781C531.41 564.781 532.648 565.145 533.484 565.871C534.328 566.598 534.75 567.73 534.75 569.27V578H532.793L532.266 576.16H532.172C531.805 576.629 531.426 577.016 531.035 577.32C530.645 577.625 530.191 577.852 529.676 578C529.168 578.156 528.547 578.234 527.812 578.234C527.039 578.234 526.348 578.094 525.738 577.812C525.129 577.523 524.648 577.086 524.297 576.5C523.945 575.914 523.77 575.172 523.77 574.273C523.77 572.938 524.266 571.934 525.258 571.262C526.258 570.59 527.766 570.219 529.781 570.148L532.031 570.066V569.387C532.031 568.488 531.82 567.848 531.398 567.465C530.984 567.082 530.398 566.891 529.641 566.891C528.992 566.891 528.363 566.984 527.754 567.172C527.145 567.359 526.551 567.59 525.973 567.863L525.082 565.918C525.715 565.582 526.434 565.309 527.238 565.098C528.051 564.887 528.895 564.781 529.77 564.781ZM532.02 571.801L530.344 571.859C528.969 571.906 528.004 572.141 527.449 572.562C526.895 572.984 526.617 573.562 526.617 574.297C526.617 574.938 526.809 575.406 527.191 575.703C527.574 575.992 528.078 576.137 528.703 576.137C529.656 576.137 530.445 575.867 531.07 575.328C531.703 574.781 532.02 573.98 532.02 572.926V571.801ZM541.477 571.367L537.141 565.027H540.281L543.246 569.586L546.223 565.027H549.352L544.992 571.367L549.574 578H546.422L543.246 573.137L540.059 578H536.93L541.477 571.367ZM549.867 565.027H552.867L555.527 572.434C555.645 572.77 555.75 573.102 555.844 573.43C555.945 573.75 556.031 574.066 556.102 574.379C556.18 574.691 556.242 575.004 556.289 575.316H556.359C556.438 574.91 556.547 574.457 556.688 573.957C556.836 573.449 557 572.941 557.18 572.434L559.734 565.027H562.699L557.133 579.781C556.812 580.625 556.418 581.344 555.949 581.938C555.488 582.539 554.941 582.992 554.309 583.297C553.676 583.609 552.953 583.766 552.141 583.766C551.75 583.766 551.41 583.742 551.121 583.695C550.832 583.656 550.586 583.613 550.383 583.566V581.363C550.547 581.402 550.754 581.438 551.004 581.469C551.254 581.5 551.512 581.516 551.777 581.516C552.27 581.516 552.695 581.418 553.055 581.223C553.414 581.027 553.719 580.75 553.969 580.391C554.219 580.039 554.426 579.637 554.59 579.184L555.047 577.965L549.867 565.027Z" fill="white"/>
<defs>
<clipPath id="clip0_5749_61744">
<rect width="161.013" height="52.71" fill="white" transform="translate(130 149)"/>
</clipPath>
<clipPath id="clip1_5749_61744">
<rect width="22" height="27.3104" fill="white" transform="translate(413.001 445)"/>
</clipPath>
</defs>
</svg>
