<svg width="165" height="50" viewBox="0 0 165 50" fill="none" xmlns="http://www.w3.org/2000/svg">
<g clip-path="url(#clip0_5749_63178)">
<mask id="mask0_5749_63178" style="mask-type:luminance" maskUnits="userSpaceOnUse" x="-3" y="-1" width="171" height="52">
<path d="M168 -1H-3V51H168V-1Z" fill="white"/>
</mask>
<g mask="url(#mask0_5749_63178)">
<path d="M0 48.75C4.125 48.75 7.66071 43.75 11.7857 43.75C15.9107 43.75 19.4464 38.75 23.5714 38.75C27.6964 38.75 31.2321 36.25 35.3571 36.25C39.4821 36.25 43.0179 27.5 47.1429 27.5C51.2679 27.5 54.8036 40.625 58.9286 40.625C63.0536 40.625 66.5893 20.625 70.7143 20.625C74.8393 20.625 78.375 3.125 82.5 3.125C86.625 3.125 90.1607 9.375 94.2857 9.375C98.4107 9.375 101.946 38.125 106.071 38.125C110.196 38.125 113.732 41.25 117.857 41.25C121.982 41.25 125.518 48.75 129.643 48.75C133.768 48.75 137.304 20.625 141.429 20.625C145.554 20.625 149.089 23.75 153.214 23.75C157.339 23.75 160.875 40.625 165 40.625" stroke="#3A6FF8" stroke-opacity="0.85" stroke-width="2"/>
</g>
</g>
<defs>
<clipPath id="clip0_5749_63178">
<rect width="165" height="50" fill="white"/>
</clipPath>
</defs>
</svg>
