<svg width="16" height="16" viewBox="0 0 16 16" fill="none" xmlns="http://www.w3.org/2000/svg">
<path d="M14.2308 7.10319L13.1328 6.29151H13.1216V4.26431H13.1209L9.6014 0.820312L9.5998 0.822073H2.87548V6.29663L1.76892 7.13279V11.7136H2.87548V15.1802H13.1216V11.7134H14.2281V10.2834L14.2308 7.10319ZM5.38764 10.5517V8.53103H6.07004C6.20828 8.53103 6.3278 8.54751 6.4286 8.57983C6.5294 8.61247 6.61212 8.65759 6.67724 8.71583C6.7422 8.77375 6.7902 8.84271 6.82124 8.92271C6.85244 9.00239 6.86796 9.08927 6.86796 9.18303C6.86796 9.28239 6.8518 9.37327 6.81916 9.45615C6.78734 9.5377 6.73674 9.61061 6.67148 9.66895C6.60556 9.72831 6.52252 9.77455 6.4222 9.80735C6.32204 9.84047 6.2046 9.85711 6.06988 9.85711H5.80524V10.552L5.38764 10.5517ZM7.22652 10.5517V8.53103H8.00348C8.15852 8.53103 8.29964 8.55599 8.42684 8.60639C8.55404 8.65647 8.66316 8.72639 8.7534 8.81615C8.84364 8.90591 8.91404 9.01231 8.96364 9.13583C9.0134 9.25919 9.03804 9.39407 9.03804 9.54095C9.03804 9.68847 9.0134 9.82431 8.96364 9.94815C8.9164 10.0681 8.84481 10.1769 8.7534 10.2678C8.65988 10.359 8.54876 10.4301 8.42684 10.4768C8.29964 10.5269 8.15852 10.552 8.00348 10.552L7.22652 10.5517ZM10.7252 8.85839H9.859V9.41663H10.586V9.74543H9.859V10.5517H9.43852V8.53103H10.7252V8.85839ZM9.10636 1.31551L9.103 4.75327L12.628 4.75727V7.10575H3.36876V1.31551H9.10636ZM12.6281 14.6866H3.36876V11.7134H12.6281V14.6866Z" fill="#D9434D"/>
<path d="M8.5675 9.82732C8.59566 9.743 8.60942 9.64732 8.60942 9.5406C8.60942 9.43468 8.59566 9.33948 8.5675 9.255C8.54274 9.17608 8.502 9.1031 8.44782 9.0406C8.39543 8.98181 8.33046 8.9356 8.25774 8.9054C8.18302 8.87372 8.09838 8.85804 8.00366 8.85804H7.64718V10.2241H8.00366C8.09838 10.2241 8.18318 10.2084 8.25774 10.1772C8.33074 10.1476 8.39582 10.1014 8.44782 10.0422C8.49982 9.98348 8.53966 9.9118 8.5675 9.82732ZM6.35758 9.44156C6.41838 9.37836 6.44878 9.29212 6.44878 9.18268C6.44878 9.1326 6.44126 9.08684 6.4259 9.04572C6.41129 9.00542 6.38739 8.96914 6.35614 8.9398C6.32234 8.90897 6.2822 8.88592 6.23854 8.87228C6.184 8.85547 6.12712 8.84753 6.07006 8.84876H5.80542V9.5366H6.07006C6.20094 9.53644 6.29678 9.5046 6.35758 9.44156Z" fill="#D9434D"/>
</svg>
