<svg width="16" height="16" viewBox="0 0 16 16" fill="none" xmlns="http://www.w3.org/2000/svg">
<path d="M2.49802 6.91016H13.502C14.0397 6.91016 14.5553 7.12375 14.9356 7.50396C15.3158 7.88417 15.5294 8.39984 15.5294 8.93754V12.4666C15.5294 12.6881 15.4414 12.9006 15.2847 13.0573C15.1281 13.2139 14.9156 13.3019 14.6941 13.3019H1.30592C1.08438 13.3019 0.871904 13.2139 0.715247 13.0573C0.55859 12.9006 0.470581 12.6881 0.470581 12.4666V8.93754C0.470594 8.39984 0.684203 7.88417 1.06442 7.50396C1.44464 7.12375 1.96032 6.91016 2.49802 6.91016Z" fill="#7388A0"/>
<path d="M12.3463 11.0947H3.65363C3.40678 11.0947 3.20667 11.2948 3.20667 11.5417C3.20667 11.7885 3.40678 11.9886 3.65363 11.9886H12.3463C12.5932 11.9886 12.7933 11.7885 12.7933 11.5417C12.7933 11.2948 12.5932 11.0947 12.3463 11.0947Z" fill="#455A77"/>
<path d="M11.0325 11.0947H7.99998H4.96751L4.3606 15.5299H7.99998H11.6394L11.0325 11.0947Z" fill="#F7F5FC"/>
<path d="M4.42106 5.81934H11.5787C11.7162 5.81934 11.848 5.87395 11.9452 5.97116C12.0424 6.06837 12.0971 6.20021 12.0971 6.33769V6.9095H3.90271V6.33774C3.9027 6.26966 3.91611 6.20225 3.94215 6.13936C3.9682 6.07646 4.00638 6.01931 4.05452 5.97117C4.10265 5.92304 4.15979 5.88485 4.22269 5.8588C4.28558 5.83275 4.35299 5.81934 4.42106 5.81934Z" fill="#455A77"/>
<path d="M5.04248 2.97363V6.90944H7.99999H10.9575V2.97363H5.04248Z" fill="#F7F5FC"/>
<path d="M4.84521 11.9887H11.1548L11.0325 11.0947H7.99999H4.96752L4.84521 11.9887Z" fill="#D0CDE2"/>
<path d="M10.9575 6.90939V6.36426H7.99999H5.04248V6.90939H7.99999H10.9575Z" fill="#D0CDE2"/>
<path d="M13.502 6.72185H12.2855V6.33827C12.2853 6.15094 12.2108 5.97133 12.0783 5.83886C11.9459 5.70639 11.7663 5.63186 11.5789 5.63164C11.529 5.63164 11.4811 5.65147 11.4458 5.68677C11.4105 5.72207 11.3907 5.76995 11.3907 5.81987C11.3907 5.8698 11.4105 5.91768 11.4458 5.95298C11.4811 5.98828 11.529 6.00811 11.5789 6.00811C11.6664 6.00821 11.7504 6.04303 11.8122 6.10493C11.8741 6.16682 11.9089 6.25074 11.909 6.33827V6.72185H11.1458V2.97437C11.1458 2.92445 11.126 2.87657 11.0907 2.84127C11.0554 2.80596 11.0075 2.78613 10.9575 2.78613H5.04225C4.99233 2.78613 4.94445 2.80596 4.90915 2.84127C4.87385 2.87657 4.85402 2.92445 4.85402 2.97437V6.72194H4.09096V6.33837C4.09105 6.25084 4.12585 6.16692 4.18774 6.10502C4.24963 6.04312 4.33355 6.0083 4.42108 6.0082C4.471 6.0082 4.51888 5.98837 4.55418 5.95307C4.58948 5.91777 4.60931 5.86989 4.60931 5.81997C4.60931 5.77004 4.58948 5.72217 4.55418 5.68687C4.51888 5.65156 4.471 5.63173 4.42108 5.63173C4.23374 5.63196 4.05414 5.70648 3.92168 5.83895C3.78921 5.97142 3.7147 6.15103 3.71449 6.33837V6.72194H2.49802C1.91061 6.7226 1.34745 6.95623 0.932082 7.37158C0.516711 7.78692 0.283046 8.35007 0.282349 8.93747V12.4665C0.28266 12.7379 0.390599 12.9981 0.582488 13.19C0.774377 13.3819 1.03455 13.4898 1.30593 13.4901H3.79793C3.84785 13.4901 3.89573 13.4703 3.93103 13.435C3.96633 13.3997 3.98616 13.3518 3.98616 13.3019C3.98616 13.252 3.96633 13.2041 3.93103 13.1688C3.89573 13.1335 3.84785 13.1137 3.79793 13.1137H1.30593C1.13435 13.1135 0.96987 13.0452 0.848556 12.9239C0.727242 12.8026 0.659006 12.6381 0.658819 12.4665V8.93747C0.659367 8.44986 0.853317 7.98238 1.19812 7.63759C1.54292 7.29279 2.01041 7.09886 2.49802 7.09832H13.502C13.9896 7.09886 14.4571 7.29279 14.8019 7.63759C15.1467 7.98238 15.3406 8.44986 15.3412 8.93747V12.4665C15.341 12.6381 15.2728 12.8026 15.1514 12.9239C15.0301 13.0452 14.8656 13.1135 14.6941 13.1137H12.1783C12.1283 13.1137 12.0805 13.1335 12.0452 13.1688C12.0099 13.2041 11.99 13.252 11.99 13.3019C11.99 13.3518 12.0099 13.3997 12.0452 13.435C12.0805 13.4703 12.1283 13.4901 12.1783 13.4901H14.6941C14.9654 13.4898 15.2256 13.3819 15.4175 13.19C15.6094 12.9981 15.7173 12.7379 15.7176 12.4665V8.93747C15.717 8.35005 15.4833 7.78688 15.0679 7.37152C14.6526 6.95615 14.0894 6.72251 13.502 6.72185ZM10.7693 6.72185H5.23049V3.1626H10.7693V6.72185Z" fill="#2F2635"/>
<path d="M4.96753 10.9064H3.6536C3.48511 10.9064 3.32352 10.9734 3.20438 11.0925C3.08524 11.2116 3.01831 11.3732 3.01831 11.5417C3.01831 11.7102 3.08524 11.8718 3.20438 11.9909C3.32352 12.1101 3.48511 12.177 3.6536 12.177H4.10269C4.15261 12.177 4.20049 12.1572 4.23579 12.1219C4.27109 12.0866 4.29092 12.0387 4.29092 11.9888C4.29092 11.9389 4.27109 11.891 4.23579 11.8557C4.20049 11.8204 4.15261 11.8005 4.10269 11.8005H3.6536C3.58496 11.8005 3.51913 11.7733 3.47059 11.7247C3.42205 11.6762 3.39478 11.6104 3.39478 11.5417C3.39478 11.4731 3.42205 11.4072 3.47059 11.3587C3.51913 11.3102 3.58496 11.2829 3.6536 11.2829H4.75177L4.17408 15.5043C4.17043 15.5309 4.17254 15.558 4.18024 15.5838C4.18794 15.6095 4.20107 15.6333 4.21874 15.6536C4.23641 15.6738 4.25821 15.69 4.28267 15.7012C4.30713 15.7123 4.3337 15.718 4.36057 15.718H11.6393C11.6662 15.718 11.6928 15.7123 11.7172 15.7012C11.7417 15.69 11.7635 15.6738 11.7812 15.6536C11.7988 15.6333 11.812 15.6095 11.8197 15.5838C11.8274 15.558 11.8295 15.5309 11.8258 15.5043L11.2481 11.2829H12.3463C12.415 11.2829 12.4808 11.3102 12.5293 11.3587C12.5779 11.4072 12.6051 11.4731 12.6051 11.5417C12.6051 11.6104 12.5779 11.6762 12.5293 11.7247C12.4808 11.7733 12.415 11.8005 12.3463 11.8005H11.9073C11.8574 11.8005 11.8095 11.8204 11.7742 11.8557C11.7389 11.891 11.7191 11.9389 11.7191 11.9888C11.7191 12.0387 11.7389 12.0866 11.7742 12.1219C11.8095 12.1572 11.8574 12.177 11.9073 12.177H12.3463C12.5148 12.177 12.6764 12.1101 12.7955 11.9909C12.9147 11.8718 12.9816 11.7102 12.9816 11.5417C12.9816 11.3732 12.9147 11.2116 12.7955 11.0925C12.6764 10.9734 12.5148 10.9064 12.3463 10.9064H4.96753ZM11.4236 15.3416H4.57633L5.13163 11.2829H10.8681L11.4236 15.3416ZM12.927 8.58063C12.9384 8.58545 12.9502 8.58908 12.9623 8.59146C12.9744 8.59385 12.9867 8.59511 12.999 8.59522C13.0237 8.59526 13.0482 8.59043 13.0711 8.58098C13.0939 8.57154 13.1147 8.55767 13.1322 8.54019C13.1497 8.5227 13.1635 8.50193 13.173 8.47907C13.1824 8.45621 13.1872 8.43172 13.1872 8.40699C13.1872 8.39464 13.1859 8.38233 13.1834 8.37023C13.1811 8.35813 13.1775 8.3463 13.1727 8.33494C13.1681 8.32353 13.1622 8.31266 13.1553 8.30251C13.1486 8.29215 13.1409 8.28252 13.1322 8.27381C13.1102 8.25208 13.0832 8.23605 13.0536 8.22711C13.024 8.21817 12.9927 8.21659 12.9623 8.22251C12.9502 8.22474 12.9384 8.22819 12.927 8.23282C12.9157 8.23771 12.9049 8.24355 12.8945 8.25028C12.8842 8.25709 12.8745 8.26497 12.8658 8.27381C12.8571 8.28266 12.8492 8.29226 12.8423 8.30251C12.8357 8.31287 12.8299 8.32371 12.8249 8.33494C12.8204 8.34638 12.817 8.35819 12.8145 8.37023C12.8119 8.38229 12.8106 8.39463 12.8107 8.40699C12.8111 8.45685 12.8308 8.50463 12.8658 8.54016C12.8747 8.54871 12.8843 8.55643 12.8945 8.56322C12.9048 8.57009 12.9156 8.57593 12.927 8.58063ZM11.9407 8.51141C11.9476 8.52172 11.9554 8.53135 11.9642 8.54016C11.9995 8.57536 12.0473 8.59513 12.0971 8.59513C12.147 8.59513 12.1948 8.57536 12.2301 8.54016C12.239 8.53148 12.2468 8.52183 12.2536 8.51141C12.2605 8.50123 12.2663 8.49037 12.271 8.47899C12.2757 8.46758 12.2793 8.45577 12.2818 8.44369C12.2842 8.4316 12.2855 8.41931 12.2856 8.40699C12.2856 8.38226 12.2807 8.35777 12.2713 8.33491C12.2618 8.31206 12.248 8.2913 12.2305 8.27381C12.213 8.25633 12.1922 8.24246 12.1694 8.23302C12.1465 8.22357 12.1221 8.21872 12.0973 8.21875C12.0474 8.21875 11.9995 8.23858 11.9642 8.27388C11.9289 8.30918 11.9091 8.35706 11.9091 8.40699C11.909 8.41932 11.9102 8.43164 11.9129 8.44369C11.9152 8.45576 11.9187 8.46758 11.9233 8.47899C11.9281 8.49028 11.9339 8.50112 11.9407 8.51141Z" fill="#2F2635"/>
<path d="M8.50289 13.9659H5.94727C5.89735 13.9659 5.84947 13.9858 5.81417 14.0211C5.77887 14.0564 5.75903 14.1042 5.75903 14.1542C5.75903 14.2041 5.77887 14.252 5.81417 14.2873C5.84947 14.3226 5.89735 14.3424 5.94727 14.3424H8.50289C8.55282 14.3424 8.60069 14.3226 8.63599 14.2873C8.67129 14.252 8.69113 14.2041 8.69113 14.1542C8.69113 14.1042 8.67129 14.0564 8.63599 14.0211C8.60069 13.9858 8.55282 13.9659 8.50289 13.9659ZM10.0528 13.9659H9.50929C9.45937 13.9659 9.41149 13.9858 9.37619 14.0211C9.34089 14.0564 9.32106 14.1042 9.32106 14.1542C9.32106 14.2041 9.34089 14.252 9.37619 14.2873C9.41149 14.3226 9.45937 14.3424 9.50929 14.3424H10.0528C10.1027 14.3424 10.1506 14.3226 10.1859 14.2873C10.2212 14.252 10.241 14.2041 10.241 14.1542C10.241 14.1042 10.2212 14.0564 10.1859 14.0211C10.1506 13.9858 10.1027 13.9659 10.0528 13.9659ZM6.08844 13.4898H9.9116C9.96152 13.4898 10.0094 13.47 10.0447 13.4347C10.08 13.3994 10.0998 13.3515 10.0998 13.3016C10.0998 13.2517 10.08 13.2038 10.0447 13.1685C10.0094 13.1332 9.96152 13.1134 9.9116 13.1134H6.08844C6.03852 13.1134 5.99064 13.1332 5.95534 13.1685C5.92004 13.2038 5.90021 13.2517 5.90021 13.3016C5.90021 13.3515 5.92004 13.3994 5.95534 13.4347C5.99064 13.47 6.03852 13.4898 6.08844 13.4898ZM6.22962 12.6372H6.7723C6.82223 12.6372 6.87011 12.6174 6.90541 12.5821C6.94071 12.5468 6.96054 12.4989 6.96054 12.449C6.96054 12.3991 6.94071 12.3512 6.90541 12.3159C6.87011 12.2806 6.82223 12.2607 6.7723 12.2607H6.22962C6.1797 12.2607 6.13182 12.2806 6.09652 12.3159C6.06122 12.3512 6.04139 12.3991 6.04139 12.449C6.04139 12.4989 6.06122 12.5468 6.09652 12.5821C6.13182 12.6174 6.1797 12.6372 6.22962 12.6372ZM7.84426 12.6372H9.77042C9.82034 12.6372 9.86822 12.6174 9.90352 12.5821C9.93883 12.5468 9.95866 12.4989 9.95866 12.449C9.95866 12.3991 9.93883 12.3512 9.90352 12.3159C9.86822 12.2806 9.82034 12.2607 9.77042 12.2607H7.84426C7.79433 12.2607 7.74646 12.2806 7.71115 12.3159C7.67585 12.3512 7.65602 12.3991 7.65602 12.449C7.65602 12.4989 7.67585 12.5468 7.71115 12.5821C7.74646 12.6174 7.79433 12.6372 7.84426 12.6372Z" fill="#2F2635"/>
</svg>
