<svg width="14" height="15" viewBox="0 0 14 15" fill="none" xmlns="http://www.w3.org/2000/svg">
<path d="M13.5037 13.2364L11.2121 10.9959L11.1584 10.9142C11.0586 10.8148 10.922 10.7588 10.7795 10.7588C10.637 10.7588 10.5004 10.8148 10.4005 10.9142C8.45303 12.7009 5.45214 12.798 3.38804 11.1412C1.32395 9.48431 0.837153 6.58761 2.2505 4.37214C3.66384 2.15668 6.53876 1.30993 8.96861 2.39346C11.3985 3.47698 12.6292 6.15456 11.8447 8.65043C11.7882 8.83073 11.8344 9.02682 11.9659 9.16481C12.0973 9.3028 12.2941 9.36174 12.4821 9.31942C12.67 9.27711 12.8206 9.13997 12.8771 8.95966C13.815 5.99779 12.3985 2.8104 9.54412 1.4594C6.6897 0.108406 3.25393 0.999247 1.45941 3.55564C-0.335112 6.11204 0.0501601 9.5668 2.36599 11.685C4.68183 13.8033 8.23323 13.9493 10.7228 12.0286L12.7518 14.0124C12.9614 14.2164 13.3002 14.2164 13.5097 14.0124C13.719 13.8055 13.719 13.4724 13.5097 13.2656L13.5037 13.2364Z" fill="#667085"/>
</svg>
