<svg width="21" height="20" viewBox="0 0 21 20" fill="none" xmlns="http://www.w3.org/2000/svg">
<path d="M17.6991 12.0996C17.4991 11.9996 17.1991 11.9996 16.9991 11.9996C15.7991 11.9996 14.6991 12.4996 13.8991 13.4996L8.79913 11.1996C8.99913 10.4996 8.99913 9.69957 8.79913 8.89957L13.8991 6.59957C15.2991 8.29957 17.7991 8.49957 19.4991 7.09957C21.1991 5.69957 21.3991 3.19957 19.9991 1.49957C18.5991 -0.200434 16.0991 -0.400434 14.3991 0.999566C13.4991 1.69957 12.9991 2.79957 12.9991 3.99957C12.9991 4.19957 12.9991 4.49957 13.0991 4.69957L7.79913 7.09957C6.19913 5.59957 3.69913 5.59957 2.09913 7.19957C0.599131 8.79957 0.599131 11.2996 2.19913 12.8996C3.79913 14.3996 6.19913 14.3996 7.79913 12.8996L13.0991 15.2996C12.6991 17.4996 14.0991 19.5996 16.2991 19.8996C18.4991 20.2996 20.5991 18.8996 20.8991 16.6996C21.2991 14.4996 19.8991 12.4996 17.6991 12.0996Z" fill="white"/>
</svg>
