<svg width="20" height="20" viewBox="0 0 20 20" fill="none" xmlns="http://www.w3.org/2000/svg">
<path d="M5.63818 1.25012C5.5458 1.24829 5.45417 1.26695 5.36987 1.30478C5.28557 1.3426 5.21071 1.39865 5.15068 1.46887L1.40068 5.84387C1.29285 5.96977 1.23945 6.13334 1.25223 6.29861C1.265 6.46387 1.34291 6.6173 1.4688 6.72512C1.53118 6.77848 1.60345 6.81902 1.6815 6.84444C1.75954 6.86986 1.84183 6.87966 1.92367 6.87327C2.0055 6.86689 2.08527 6.84445 2.15843 6.80723C2.23159 6.77002 2.2967 6.71876 2.35005 6.65637L5.00005 3.5645V18.1251C5.00005 18.2909 5.0659 18.4499 5.18311 18.5671C5.30032 18.6843 5.45929 18.7501 5.62505 18.7501C5.79081 18.7501 5.94978 18.6843 6.06699 18.5671C6.1842 18.4499 6.25005 18.2909 6.25005 18.1251V3.5645L8.90005 6.65637C8.9534 6.71876 9.01851 6.77002 9.09167 6.80723C9.16483 6.84445 9.2446 6.86689 9.32644 6.87327C9.40827 6.87966 9.49056 6.86986 9.5686 6.84444C9.64665 6.81902 9.71892 6.77848 9.7813 6.72512C9.84368 6.67178 9.89494 6.60666 9.93216 6.5335C9.96938 6.46035 9.99182 6.38057 9.9982 6.29874C10.0046 6.21691 9.99479 6.13462 9.96937 6.05657C9.94395 5.97852 9.9034 5.90625 9.85005 5.84387L6.10005 1.46887C6.04289 1.402 5.97226 1.34795 5.89278 1.31026C5.81329 1.27256 5.72675 1.25207 5.6388 1.25012H5.63818ZM14.3751 1.25012C14.2093 1.25012 14.0503 1.31597 13.9331 1.43318C13.8159 1.55039 13.7501 1.70936 13.7501 1.87512V16.4357L11.1001 13.3439C11.0429 13.277 10.9723 13.223 10.8928 13.1853C10.8133 13.1476 10.7267 13.1271 10.6388 13.1251C10.4851 13.1218 10.3356 13.1752 10.2188 13.2751C10.1564 13.3285 10.1052 13.3936 10.0679 13.4667C10.0307 13.5399 10.0083 13.6197 10.0019 13.7015C9.99552 13.7833 10.0053 13.8656 10.0307 13.9437C10.0562 14.0217 10.0967 14.094 10.1501 14.1564L13.9001 18.5314C13.9587 18.6 14.0316 18.6551 14.1136 18.6928C14.1956 18.7306 14.2848 18.7502 14.3751 18.7502C14.4653 18.7502 14.5545 18.7306 14.6365 18.6928C14.7185 18.6551 14.7914 18.6 14.8501 18.5314L18.6001 14.1564C18.6534 14.094 18.6939 14.0217 18.7194 13.9437C18.7448 13.8656 18.7546 13.7833 18.7482 13.7015C18.7418 13.6197 18.7194 13.5399 18.6822 13.4667C18.6449 13.3936 18.5937 13.3285 18.5313 13.2751C18.4689 13.2218 18.3967 13.1812 18.3186 13.1558C18.2406 13.1304 18.1583 13.1206 18.0764 13.127C17.9946 13.1334 17.9148 13.1558 17.8417 13.193C17.7685 13.2302 17.7034 13.2815 17.6501 13.3439L15.0001 16.4357V1.87512C15.0001 1.70936 14.9342 1.55039 14.817 1.43318C14.6998 1.31597 14.5408 1.25012 14.3751 1.25012Z" fill="#344054"/>
</svg>
