<svg width="21" height="20" viewBox="0 0 21 20" fill="none" xmlns="http://www.w3.org/2000/svg">
<path d="M10.6667 20C16.1896 20 20.6667 15.5228 20.6667 10C20.6667 4.47715 16.1896 0 10.6667 0C5.1439 0 0.666748 4.47715 0.666748 10C0.666748 15.5228 5.1439 20 10.6667 20Z" fill="#26A17B"/>
<path fill-rule="evenodd" clip-rule="evenodd" d="M11.868 10.8642V10.863C11.7992 10.868 11.4449 10.8892 10.6542 10.8892C10.023 10.8892 9.57862 10.8705 9.42237 10.863V10.8648C6.99237 10.758 5.17862 10.3348 5.17862 9.82859C5.17862 9.32297 6.99237 8.89984 9.42237 8.79109V10.4436C9.58112 10.4548 10.0361 10.4817 10.6649 10.4817C11.4192 10.4817 11.7974 10.4505 11.868 10.4442V8.79234C14.293 8.90047 16.1024 9.32359 16.1024 9.82859C16.1024 10.3348 14.293 10.7567 11.868 10.8642ZM11.868 8.62047V7.14172H15.2517V4.88672H6.03862V7.14172H9.42237V8.61984C6.67237 8.74609 4.60425 9.29109 4.60425 9.94359C4.60425 10.5961 6.67237 11.1405 9.42237 11.2673V16.0061H11.868V11.2661C14.6136 11.1398 16.6767 10.5955 16.6767 9.94359C16.6767 9.29172 14.6136 8.74734 11.868 8.62047Z" fill="white"/>
</svg>
