<svg width="23" height="24" viewBox="0 0 23 24" fill="none" xmlns="http://www.w3.org/2000/svg">
<rect y="0.5" width="23" height="23" rx="8" fill="#0D63D3" fill-opacity="0.2"/>
<path d="M17.25 8.40625V6.96875C17.25 6.17597 16.6053 5.53125 15.8125 5.53125H6.46875C5.27994 5.53125 4.3125 6.49869 4.3125 7.6875V16.3125C4.3125 17.8945 5.60194 18.4688 6.46875 18.4688H17.25C18.0428 18.4688 18.6875 17.824 18.6875 17.0312V9.84375C18.6875 9.05097 18.0428 8.40625 17.25 8.40625ZM15.8125 14.875H14.375V12H15.8125V14.875ZM6.46875 8.40625C6.28369 8.39797 6.10895 8.31863 5.98092 8.18474C5.85289 8.05086 5.78143 7.87275 5.78143 7.6875C5.78143 7.50225 5.85289 7.32414 5.98092 7.19026C6.10895 7.05637 6.28369 6.97703 6.46875 6.96875H15.8125V8.40625H6.46875Z" fill="#0D63D3"/>
</svg>
