<svg width="17" height="21" viewBox="0 0 17 21" fill="none" xmlns="http://www.w3.org/2000/svg">
<path d="M15.8591 -0.00188286L0 -0.00188286L0 4.13118L11.743 4.13118C11.819 4.12977 11.8946 4.14334 11.9653 4.17111C12.0361 4.19888 12.1007 4.24031 12.1555 4.29303C12.2102 4.34575 12.254 4.40872 12.2844 4.47836C12.3148 4.548 12.3311 4.62293 12.3325 4.69888V4.77316C12.3325 11.3733 6.80891 16.7267 0 16.7267L0 20.8597H1.63053C5.24543 20.5822 8.67012 19.1307 11.3818 16.7267C11.7111 16.4366 12.0298 16.1289 12.3378 15.8035C15.1321 12.8966 16.6894 9.02076 16.6824 4.99068V0.799262C16.681 0.692658 16.6586 0.587371 16.6165 0.489413C16.5743 0.391456 16.5133 0.302746 16.4369 0.228351C16.3604 0.153956 16.27 0.0953329 16.1709 0.055829C16.0718 0.0163251 15.9658 -0.00328549 15.8591 -0.00188286ZM13.2035 8.61441V3.87651C13.2008 3.72265 13.1372 3.57612 13.0268 3.4688C12.9164 3.36149 12.7681 3.30208 12.614 3.3035H7.52592V2.50236L13.4585 2.50236C13.5345 2.50095 13.6101 2.51452 13.6808 2.54229C13.7516 2.57006 13.8162 2.61149 13.871 2.66421C13.9257 2.71693 13.9695 2.7799 13.9999 2.84954C14.0303 2.91918 14.0466 2.99411 14.048 3.07006V8.61441H13.2035ZM14.8925 8.61441V2.22647C14.8913 2.0785 14.8334 1.93662 14.7306 1.83003C14.6279 1.72344 14.4881 1.66025 14.3401 1.65346L7.52592 1.65346V0.847013L15.1474 0.847013C15.2239 0.845608 15.2999 0.859353 15.371 0.887455C15.4421 0.915556 15.507 0.957456 15.5618 1.01074C15.6166 1.06401 15.6603 1.12762 15.6904 1.19786C15.7204 1.26811 15.7363 1.34362 15.737 1.42002V8.61441H14.8925Z" fill="#FAFAFA"/>
<path d="M14.6802 20.7955C15.8271 20.7955 16.7568 19.8667 16.7568 18.721C16.7568 17.5753 15.8271 16.6465 14.6802 16.6465C13.5333 16.6465 12.6035 17.5753 12.6035 18.721C12.6035 19.8667 13.5333 20.7955 14.6802 20.7955Z" fill="#FAFAFA"/>
</svg>
